<svg width="400" height="404" viewBox="0 0 400 404" fill="none" xmlns="http://www.w3.org/2000/svg">
<g clip-path="url(#clip0_295_416)">
<path fill-rule="evenodd" clip-rule="evenodd" d="M184 9.99339C183.67 10.2104 181.836 10.3914 179.924 10.3944C178.012 10.3974 176.336 10.5804 176.2 10.8004C176.064 11.0204 174.725 11.2004 173.225 11.2004C171.215 11.2004 170.359 11.3684 169.968 11.8394C169.61 12.2704 169.038 12.4134 168.21 12.2794C167.536 12.1704 166.267 12.3294 165.392 12.6344C164.516 12.9394 163.046 13.1914 162.124 13.1944C161.202 13.1974 160.336 13.3804 160.2 13.6004C160.064 13.8204 159.522 14.0004 158.995 14.0004C158.469 14.0004 157.624 14.1644 157.119 14.3654C156.613 14.5664 153.68 15.3034 150.6 16.0024C147.52 16.7014 144.46 17.5064 143.8 17.7914C143.14 18.0754 141.88 18.5454 141 18.8364C140.12 19.1264 139.229 19.5074 139.02 19.6824C138.811 19.8574 138.172 20.0004 137.6 20.0004C137.028 20.0004 136.389 20.1714 136.18 20.3804C135.971 20.5894 134.72 21.1154 133.4 21.5494C129.065 22.9754 127.429 23.6184 125.2 24.7714C123.99 25.3974 122.55 26.0414 122 26.2034C120.228 26.7234 104.776 34.5824 101.561 36.5994C101.209 36.8204 99.7996 37.7204 98.4286 38.6004C97.0566 39.4804 94.6896 40.9874 93.1676 41.9494C91.6456 42.9104 90.3996 43.8334 90.3996 44.0004C90.3996 44.1674 89.8596 44.5274 89.1996 44.8004C88.5396 45.0734 87.9996 45.4164 87.9996 45.5624C87.9996 45.7084 87.4146 46.1664 86.6996 46.5804C85.9846 46.9944 84.8196 47.7984 84.1106 48.3664C83.4016 48.9354 81.8026 50.2104 80.5566 51.2004C79.3116 52.1904 77.2816 53.9184 76.0456 55.0414C74.8106 56.1644 73.4566 57.2664 73.0386 57.4914C71.9406 58.0814 54.3996 75.5984 54.3996 76.1044C54.3996 76.3374 53.4546 77.5734 52.2996 78.8514C47.9936 83.6164 47.1596 84.6404 44.5256 88.4004C44.1406 88.9504 43.0996 90.3894 42.2126 91.5984C39.9516 94.6794 34.5366 103.082 33.5766 105C33.1356 105.88 32.5556 106.949 32.2876 107.377C29.4536 111.888 24.3736 122.001 22.0286 127.8C21.3166 129.56 20.4646 131.622 20.1346 132.382C19.4396 133.982 18.5976 136.519 18.2356 138.1C18.0976 138.705 17.8076 139.2 17.5916 139.2C17.3766 139.2 17.1996 139.515 17.1996 139.9C17.1996 140.285 16.8206 141.59 16.3566 142.8C15.4996 145.041 14.8746 147.184 13.6106 152.231C13.2206 153.788 12.7226 155.408 12.5046 155.831C11.7876 157.219 12.2596 157.52 14.3126 156.981C16.4016 156.434 20.9536 154.962 22.1996 154.432C22.6396 154.244 23.7196 153.89 24.5996 153.644C38.9446 149.635 39.9056 149.172 40.8966 145.8C41.1186 145.046 41.7886 143.311 43.5646 138.9C43.9846 137.855 44.7156 136.024 45.1886 134.832C46.4676 131.606 49.5356 125.378 51.4106 122.2C52.3186 120.66 53.8536 118.05 54.8216 116.4C57.6076 111.648 60.8196 106.8 61.1816 106.8C61.3636 106.8 61.6176 106.384 61.7446 105.876C61.9756 104.956 62.4416 104.322 65.2996 101.035C66.1246 100.087 66.7996 99.1374 66.7996 98.9254C66.7996 98.7134 67.2716 98.1034 67.8476 97.5704C68.4236 97.0364 69.3436 95.8974 69.8926 95.0374C70.4406 94.1774 72.0936 92.2874 73.5646 90.8374C75.0356 89.3874 76.6696 87.5704 77.1956 86.8004C78.2996 85.1844 82.1706 81.3174 84.2996 79.7054C85.1016 79.0974 86.9366 77.4574 88.3786 76.0594C89.8206 74.6614 91.5396 73.1434 92.1996 72.6854C93.3916 71.8584 94.9806 70.5914 97.9476 68.1004C98.7996 67.3854 99.6716 66.8004 99.8866 66.8004C100.101 66.8004 100.619 66.4194 101.038 65.9534C101.832 65.0714 108.424 60.5674 111.579 58.7524C112.581 58.1764 114.93 56.7854 116.8 55.6624C119.897 53.8024 129.651 48.8004 130.182 48.8004C130.304 48.8004 131.348 48.3384 132.502 47.7744C134.733 46.6834 141.57 44.0084 142.14 44.0034C142.326 44.0014 143.046 43.7474 143.74 43.4394C147.376 41.8194 154.357 39.6804 160.2 38.3964C162.4 37.9124 164.722 37.3554 165.36 37.1584C165.998 36.9614 167.078 36.7974 167.76 36.7944C168.442 36.7914 169.72 36.5294 170.6 36.2124C171.48 35.8954 172.929 35.6274 173.82 35.6184C174.711 35.6084 175.611 35.4344 175.82 35.2304C176.029 35.0274 177.64 34.7554 179.4 34.6264C181.16 34.4974 185.21 34.1984 188.4 33.9634C200.567 33.0644 223.138 33.9514 226.8 35.4714C227.35 35.6994 228.695 35.8964 229.788 35.9084C230.882 35.9204 231.842 36.1264 231.922 36.3654C232.001 36.6044 232.796 36.8004 233.687 36.8004C234.578 36.8004 236.048 36.9944 236.954 37.2324C239.944 38.0164 241.375 38.3614 243.6 38.8364C247.489 39.6674 252.767 41.2544 256.8 42.8054C258.01 43.2714 259.99 43.9884 261.2 44.4004C266.186 46.0974 268.67 47.1724 277.474 51.4454C280.815 53.0664 283.655 54.5654 283.785 54.7764C283.916 54.9874 285.142 55.7264 286.511 56.4184C287.88 57.1104 289.284 57.9294 289.631 58.2384C289.979 58.5474 290.401 58.8004 290.569 58.8004C290.737 58.8004 291.94 59.6104 293.242 60.6004C294.544 61.5904 295.759 62.4004 295.942 62.4004C296.446 62.4004 304.521 68.3524 307.365 70.8194C308.264 71.6004 309.54 72.5724 310.2 72.9794C310.86 73.3874 312.12 74.5254 313 75.5094C313.88 76.4934 315.41 77.8464 316.4 78.5164C318.902 80.2104 324.067 85.3204 326.226 88.2364C327.218 89.5754 328.566 91.0684 329.222 91.5534C329.878 92.0384 331.067 93.4174 331.864 94.6184C332.661 95.8184 333.462 96.8004 333.644 96.8004C333.826 96.8004 334.612 97.7454 335.391 98.9004C336.169 100.055 337.528 101.9 338.411 103C339.294 104.1 340.122 105.405 340.252 105.9C340.381 106.395 340.631 106.8 340.806 106.8C341.065 106.8 343.28 110.011 345.8 114.041C346.02 114.393 346.707 115.443 347.328 116.376C348.357 117.924 349.351 119.768 355.267 131.104C356.33 133.141 357.2 135.155 357.2 135.58C357.2 136.005 357.366 136.456 357.569 136.581C357.773 136.707 358.238 137.752 358.605 138.905C358.971 140.057 359.537 141.63 359.862 142.4C360.188 143.17 360.598 144.16 360.774 144.6C360.949 145.04 361.301 145.85 361.556 146.4C361.811 146.95 362.532 149.02 363.159 151L364.299 154.6L369.649 154.713C372.592 154.775 375.36 154.65 375.8 154.434C376.24 154.219 377.95 153.947 379.6 153.83C386.717 153.327 388 153.022 388 151.836C388 150.532 386.252 143.959 385.066 140.8C382.226 133.241 380.698 129.359 380.42 129C380.25 128.78 379.983 128.06 379.828 127.4C379.512 126.054 371.711 110.386 370.09 107.841C368.703 105.663 367.412 103.398 366.306 101.2C365.808 100.21 365.287 99.3474 365.149 99.2834C365.011 99.2194 363.931 97.6164 362.749 95.7224C361.567 93.8274 360.015 91.6374 359.3 90.8554C358.585 90.0734 358 89.3084 358 89.1554C358 89.0014 357.377 88.0944 356.616 87.1384C355.854 86.1824 354.639 84.6294 353.916 83.6874C353.192 82.7444 351.565 80.7914 350.3 79.3464C349.035 77.9024 348 76.5764 348 76.4024C348 75.9564 330.507 58.5174 328.8 57.2624C327.478 56.2894 325.77 54.8484 321.262 50.9004C320.194 49.9654 319.141 49.2004 318.922 49.2004C318.703 49.2004 318.182 48.8224 317.763 48.3594C317.344 47.8974 316.484 47.2504 315.851 46.9234C315.218 46.5964 313.772 45.5794 312.639 44.6644C311.505 43.7494 308.989 42.0104 307.047 40.8004C305.106 39.5904 302.951 38.2034 302.258 37.7174C301.566 37.2324 300.37 36.4944 299.6 36.0774C297.685 35.0414 288.788 30.2404 287.8 29.7104C285.179 28.3054 280.271 26.0004 279.899 26.0004C279.657 26.0004 278.186 25.4004 276.63 24.6664C273.653 23.2634 272.845 22.9514 268 21.3324C266.35 20.7804 264.46 20.1024 263.8 19.8244C261.15 18.7104 257.122 17.4784 251.8 16.1544C244.175 14.2574 243.189 14.0034 241.772 13.5734C241.096 13.3684 239.993 13.2004 239.32 13.2004C238.648 13.2004 237.457 12.9324 236.674 12.6054C235.826 12.2514 234.75 12.1104 234.014 12.2574C233.177 12.4254 232.556 12.3054 232.089 11.8874C231.695 11.5354 230.286 11.1724 228.8 11.0414C227.37 10.9164 224.4 10.6154 222.2 10.3744C216.862 9.78939 184.796 9.46939 184 9.99339ZM191.016 71.7004C190.717 72.4154 189.916 73.7004 189.236 74.5554C188.556 75.4104 188 76.2744 188 76.4744C188 76.7954 184.838 82.1294 183.2 84.5714C182.87 85.0634 181.88 86.5974 181 87.9794C180.12 89.3624 179.198 90.7064 178.952 90.9664C178.705 91.2264 178.206 92.0154 177.842 92.7204C177.477 93.4244 177.008 94.0004 176.797 94.0004C176.587 94.0004 176.306 94.4374 176.172 94.9714C176.038 95.5044 175.584 96.2524 175.164 96.6334C174.744 97.0134 174.4 97.4964 174.4 97.7074C174.4 97.9184 173.94 98.6554 173.377 99.3454C172.381 100.568 169.518 104.393 167.695 106.937C167.197 107.631 166.47 108.56 166.079 109C165.688 109.44 164.686 110.743 163.854 111.895C163.021 113.047 161.945 114.307 161.462 114.695C160.98 115.083 160.226 115.974 159.788 116.675C158.254 119.128 141.486 135.731 140.1 136.169C139.605 136.326 139.2 136.626 139.2 136.836C139.2 137.308 135.642 139.6 134.91 139.6C134.385 139.6 135.817 136.374 136.474 136.075C136.625 136.007 137.33 135.017 138.041 133.875C138.752 132.734 139.979 130.834 140.767 129.654C141.555 128.473 142.38 127.215 142.6 126.857C142.82 126.5 143.585 125.287 144.3 124.162C145.015 123.038 145.6 121.946 145.6 121.736C145.6 121.527 146.063 120.735 146.629 119.978C147.569 118.72 152.687 108.565 156.092 101.2C156.855 99.5504 157.876 96.5804 158.361 94.6004C158.846 92.6204 159.413 90.4474 159.621 89.7724C160.1 88.2194 160.118 82.5204 159.645 82.2284C159.45 82.1074 159.18 81.4224 159.045 80.7044C158.537 78.0024 154.4 75.2414 154.4 77.6054C154.4 78.3994 148.287 90.7424 147.674 91.1864C147.511 91.3044 147.026 92.1974 146.596 93.1714C146.166 94.1454 145.521 95.2254 145.162 95.5714C144.803 95.9174 144.016 97.1004 143.414 98.2004C141.848 101.058 139.265 104.846 138.153 105.916C137.629 106.42 137.2 107.025 137.2 107.261C137.2 107.74 135.908 109.421 133.156 112.522C132.141 113.665 131.241 114.823 131.156 115.096C130.957 115.729 114.738 132 114.305 132C114.127 132 113.221 132.694 112.291 133.542C110.51 135.166 106.286 138.207 104.476 139.168C103.888 139.481 103.165 139.978 102.869 140.274C102.574 140.569 101.492 141.191 100.466 141.656C99.4396 142.121 98.0606 142.883 97.4016 143.35C95.5616 144.654 85.2746 149.772 82.7996 150.615C81.5896 151.027 80.3296 151.558 79.9996 151.795C78.8116 152.648 76.0796 154 75.5456 153.999C74.9066 153.998 67.9006 156.801 64.9936 158.221C63.8896 158.759 62.8226 159.2 62.6206 159.2C62.4196 159.2 60.8916 159.735 59.2266 160.388C57.5616 161.041 54.7396 162.014 52.9546 162.55C51.1696 163.086 49.3696 163.708 48.9546 163.932C47.1456 164.909 36.7366 168.382 31.7996 169.657C30.0396 170.111 28.4286 170.644 28.2196 170.841C28.0106 171.039 27.4366 171.2 26.9436 171.2C26.4506 171.2 25.9546 171.349 25.8426 171.531C25.7296 171.713 24.5046 172.183 23.1186 172.576C21.7336 172.969 20.1496 173.43 19.5996 173.6C19.0496 173.77 17.5196 174.187 16.1996 174.525C10.9896 175.859 8.75155 176.554 8.53455 176.905C7.48155 178.61 7.03555 217.292 7.96455 226.4C8.22255 228.93 8.44755 231.72 8.46355 232.6C8.48055 233.48 8.63155 234.38 8.80055 234.6C8.96955 234.82 9.23455 235.597 9.39155 236.327C9.73555 237.939 10.3806 238.238 12.0946 237.582C13.3746 237.092 14.9756 236.837 22.1996 235.976C37.8596 234.108 56.0376 235.824 65.5456 240.066C69.8546 241.989 71.8316 242.983 72.3286 243.476C72.6186 243.764 73.0406 244 73.2646 244C73.7256 244 75.1056 245.014 78.0276 247.5C79.1266 248.435 80.1596 249.2 80.3226 249.2C80.4856 249.2 83.6746 252.275 87.4096 256.033C91.1436 259.791 94.7666 263.256 95.4606 263.733C96.6056 264.52 98.4116 266.091 106.958 273.734C108.475 275.09 110.019 276.38 110.388 276.6C110.757 276.82 112.249 278.147 113.704 279.549C115.159 280.951 116.856 282.418 117.475 282.809C119.237 283.922 135.859 300.894 136.173 301.9C136.327 302.395 136.616 302.8 136.815 302.8C137.812 302.8 143.2 312.955 143.2 314.835C143.2 315.465 143.542 316.544 143.961 317.232L144.722 318.483L147.572 315.771C156.016 307.735 156.032 296.476 147.619 282.8C146.74 281.37 145.797 279.75 145.525 279.2C145.253 278.65 144.023 277.03 142.79 275.6C141.558 274.17 140.122 272.37 139.599 271.6C139.076 270.83 136.434 268.004 133.727 265.319C131.02 262.634 128.489 259.92 128.102 259.287C127.716 258.655 126.818 257.251 126.108 256.168C125.397 255.086 124.812 253.919 124.808 253.576C124.803 253.234 124.536 252.604 124.213 252.176C122.715 250.197 123.388 244.375 125.655 239.685C128.104 234.621 137.921 224.289 142.838 221.6C143.442 221.27 144.985 220.187 146.268 219.193C147.551 218.199 149.59 216.738 150.8 215.946C155.335 212.979 158.815 210.8 159.02 210.8C159.137 210.8 159.72 210.468 160.316 210.061C163.331 208.007 167.202 205.576 168.875 204.687C169.907 204.138 171.285 203.309 171.937 202.845C172.59 202.38 173.314 202 173.548 202C173.781 202 174.563 201.505 175.286 200.9C176.738 199.685 177.395 199.283 181.199 197.289C182.628 196.54 183.888 195.793 183.999 195.629C184.109 195.465 185.1 194.814 186.2 194.183C187.3 193.551 189.053 192.442 190.096 191.717C191.139 190.993 192.08 190.4 192.189 190.4C192.4 190.4 201.005 184.727 202.807 183.4C203.404 182.96 205.279 181.61 206.973 180.4C212.195 176.671 212.558 176.394 214 175.037C214.77 174.312 215.835 173.43 216.367 173.075C218.08 171.933 227.559 162.45 228.54 160.894C229.063 160.066 229.786 159.144 230.146 158.845C230.506 158.546 230.8 158.082 230.8 157.813C230.8 157.544 231.175 156.985 231.633 156.57C232.517 155.77 235.549 149.678 236.396 147C236.675 146.12 237.052 145.002 237.235 144.516C237.418 144.03 237.679 142.68 237.815 141.516C237.951 140.352 238.24 138.93 238.457 138.355C238.749 137.583 238.676 136.771 238.18 135.253C237.81 134.123 237.605 132.826 237.724 132.371C238.013 131.265 236.873 127.509 236.305 127.698C236.059 127.78 235.664 128.197 235.429 128.624C235.193 129.051 234.82 129.527 234.6 129.683C234.38 129.838 230.678 133.438 226.373 137.683C222.068 141.927 217.234 146.48 215.63 147.8C214.026 149.12 211.771 151.055 210.618 152.1C209.466 153.145 208.234 154 207.881 154C207.528 154 207.096 154.235 206.92 154.522C206.744 154.809 205.88 155.574 205 156.222C204.12 156.87 202.952 157.805 202.404 158.3C201.856 158.795 201.203 159.2 200.953 159.2C200.703 159.2 200.266 159.48 199.982 159.822C199.555 160.336 196.533 162.308 193.273 164.2C192.894 164.42 192.035 164.994 191.366 165.474C188.372 167.625 174.972 174.313 170.6 175.84C169.5 176.224 168.42 176.657 168.2 176.803C167.98 176.949 166.72 177.393 165.4 177.789C164.08 178.186 162.82 178.641 162.6 178.8C162.38 178.96 161.435 179.207 160.5 179.35C158.476 179.659 158.158 178.884 159.832 177.719C160.4 177.323 161.655 176.235 162.621 175.3C163.588 174.365 164.546 173.6 164.749 173.6C164.953 173.6 166.352 172.525 167.86 171.21C169.367 169.896 172.107 167.511 173.948 165.91C180.686 160.053 203.6 137.51 203.6 136.739C203.6 136.554 204.77 135.128 206.2 133.57C207.63 132.012 208.8 130.598 208.8 130.428C208.8 130.258 209.295 129.574 209.9 128.908C212.61 125.926 217.162 118.924 219.983 113.4C221.9 109.645 222.784 107.338 224.435 101.772C224.901 100.201 224.911 93.0094 224.449 92.0954C224.255 91.7134 223.59 90.2714 222.971 88.8924C221.019 84.5434 220.093 84.3754 217.908 87.9744C217.432 88.7584 216.933 89.4904 216.8 89.6004C216.667 89.7104 216.172 90.4304 215.702 91.2004C215.231 91.9704 214.475 92.8274 214.023 93.1034C213.57 93.3804 213.2 93.8354 213.2 94.1144C213.2 94.7264 210.315 98.6284 209.012 99.7784C208.5 100.23 207.747 101.156 207.34 101.835C206.463 103.298 204.938 105.217 202.183 108.325C201.074 109.576 199.651 111.299 199.021 112.154C198.392 113.009 197.081 114.449 196.108 115.354C195.136 116.259 194.096 117.45 193.797 118C193.085 119.311 175.71 136.8 175.119 136.8C174.869 136.8 173.456 137.925 171.981 139.3C170.505 140.675 168.543 142.34 167.621 143C166.699 143.66 165.282 144.745 164.473 145.412C160.602 148.598 148.778 155.2 146.942 155.2C144.918 155.2 145.769 153.818 149.631 150.831C150.604 150.079 152.48 148.225 153.8 146.712C155.12 145.199 158.127 141.994 160.483 139.59C162.838 137.187 165.449 134.361 166.284 133.31C167.119 132.26 168.478 130.68 169.304 129.8C170.131 128.92 171.347 127.48 172.006 126.6C172.665 125.72 174.017 124.01 175.011 122.8C176.005 121.59 177.711 119.307 178.802 117.728C179.894 116.148 180.966 114.745 181.184 114.61C181.812 114.222 184.289 110.287 187.107 105.2C187.655 104.21 188.329 103.13 188.605 102.8C189.745 101.437 193.425 92.7704 194.702 88.4414C195.432 85.9674 195.894 75.6434 195.292 75.2374C195.099 75.1074 194.421 73.9654 193.786 72.7004C192.474 70.0834 191.794 69.8374 191.016 71.7004Z" fill="#1F2D5B"/>
<path fill-rule="evenodd" clip-rule="evenodd" d="M254.203 91.6312C244.131 101.157 246.582 116.13 261.27 134.805C262.738 136.672 265.786 140 268.042 142.2C275.891 149.853 277.939 153.51 278.028 160.035L278.087 164.392L276.398 167.802C275.469 169.677 274.163 171.794 273.496 172.506C272.829 173.218 271.582 174.747 270.724 175.906C269.867 177.064 268.498 178.443 267.682 178.971C266.866 179.499 265.469 180.622 264.576 181.466C262.262 183.653 259.783 185.522 253.349 189.929C248.172 193.477 246.072 194.854 242.636 196.957C241.956 197.373 240.769 198.114 239.999 198.602C234.906 201.834 225.966 207.234 225.344 207.455C224.934 207.6 224.239 208.035 223.799 208.422C223.359 208.808 222.436 209.456 221.748 209.862C219.204 211.363 212.959 215.261 211.727 216.117C211.027 216.602 209.257 217.72 207.792 218.6C206.328 219.48 204.518 220.65 203.771 221.2C203.023 221.75 201.23 223.01 199.785 224C195.563 226.894 193.046 228.694 192.347 229.32C191.989 229.641 190.697 230.641 189.476 231.543C188.256 232.445 187.134 233.381 186.984 233.624C186.834 233.866 186.207 234.372 185.59 234.747C183.909 235.769 175.407 244.054 174.642 245.414C174.275 246.067 172.995 247.77 171.796 249.2C167.051 254.862 164.389 262.227 164.224 270.148C164.044 278.778 165.251 281.09 168.063 277.5C169.854 275.214 179.153 265.812 180.846 264.575C181.59 264.032 183.279 262.591 184.599 261.373C189.101 257.221 192.279 254.492 193.17 254.016C193.659 253.754 194.361 253.28 194.729 252.962C196.148 251.739 199.997 248.8 200.181 248.8C200.287 248.8 202.315 247.481 204.687 245.868C212.408 240.619 228.727 232 230.946 232C231.251 232 231.725 231.73 231.999 231.4C232.273 231.07 232.79 230.796 233.148 230.79C233.506 230.785 234.824 230.437 236.077 230.018C241.328 228.26 243.744 228.705 240.699 230.869C239.984 231.377 238.488 232.605 237.375 233.597C236.262 234.588 234.298 236.3 233.011 237.4C216.377 251.618 198.387 270.056 190.402 281.072C189.633 282.133 188.905 283.09 188.783 283.2C188.662 283.31 187.497 285.11 186.194 287.2C184.891 289.29 183.685 291.06 183.512 291.133C183.34 291.207 183.199 291.465 183.199 291.707C183.199 291.95 182.539 293.42 181.733 294.974C180.167 297.993 177.999 304.294 177.999 305.825C177.999 306.335 177.819 306.864 177.599 307C177.117 307.298 177.058 314.48 177.533 315.02C177.717 315.229 178.188 316.3 178.58 317.4C180.363 322.404 181.724 323.26 183.508 320.5C185.472 317.462 186.923 315.454 189.236 312.576C190.425 311.095 191.728 309.325 192.129 308.642C192.531 307.959 193.079 307.22 193.346 307C193.613 306.78 194.358 305.88 195.001 305C196.257 303.281 198.14 301.011 200.996 297.77C201.98 296.653 203.301 295.027 203.932 294.155C204.564 293.284 205.644 292.096 206.334 291.516C207.024 290.935 208.655 289.142 209.959 287.53C213.813 282.765 228.484 268.808 231.697 266.85C232.52 266.348 233.33 265.721 233.497 265.455C233.971 264.698 239.926 260.497 244.796 257.484C249.339 254.674 255.599 252.141 255.599 253.114C255.599 253.321 251.549 257.596 246.599 262.613C241.649 267.631 237.599 271.904 237.599 272.11C237.599 272.317 236.37 273.771 234.867 275.343C233.365 276.914 231.71 278.83 231.189 279.6C230.668 280.37 229.873 281.377 229.421 281.838C228.454 282.823 224.902 287.287 223.905 288.769C223.524 289.336 222.804 290.365 222.305 291.057C217.516 297.696 216.265 299.785 212.237 307.86C208.661 315.032 208.701 314.938 207.788 318.2C207.419 319.52 206.955 321.122 206.758 321.76C206.255 323.384 206.31 330.005 206.839 331.64C208.902 338.017 210.034 338.152 213.205 332.4C216.544 326.342 217.002 325.581 219.345 322.2C219.649 321.76 221.316 319.266 223.049 316.658C228.384 308.626 228.937 307.829 230.999 305.193C232.099 303.787 233.269 302.244 233.599 301.764C234.449 300.53 237.331 296.856 238.75 295.2C239.409 294.43 240.815 292.73 241.874 291.423C244.788 287.825 259.028 273.681 262.136 271.298C265.717 268.552 267.662 268.418 265.46 271.069C264.943 271.691 264.268 272.659 263.96 273.22C263.073 274.834 261.964 276.65 259.599 280.363C256.737 284.856 256.679 284.951 254.956 288C252.781 291.848 247.334 302.544 246.988 303.645C246.824 304.17 246.282 305.5 245.785 306.6C241.462 316.161 241.028 325.341 244.709 329.367C246.637 331.476 247.454 330.958 249.21 326.511C249.712 325.24 250.698 323.21 251.403 322C252.107 320.79 253.459 318.36 254.407 316.6C257.779 310.344 265.436 299.163 269.785 294.146C270.573 293.236 271.709 291.791 272.309 290.935C273.804 288.8 287.347 275.726 289.851 274C290.968 273.23 292.853 271.874 294.041 270.987C296.897 268.853 304.027 264.613 308.999 262.091C311.199 260.975 313.539 259.779 314.199 259.433C314.859 259.088 315.517 258.804 315.661 258.802C315.804 258.801 317.003 258.189 318.324 257.442C319.645 256.696 321.715 255.715 322.925 255.262C325.365 254.349 327.979 253.233 330.999 251.816C333.831 250.488 338.19 248.655 340.999 247.613C342.319 247.123 343.759 246.57 344.199 246.385C352.327 242.956 353.382 242.562 371.999 236.001C373.429 235.497 376.759 234.562 379.399 233.922C382.039 233.283 384.739 232.571 385.399 232.34C386.059 232.109 387.499 231.744 388.599 231.527C392.247 230.809 393.096 229.989 393.408 226.886C393.556 225.409 393.841 223.48 394.041 222.6C394.677 219.805 394.988 189.337 394.407 186.8C393.944 184.779 393.634 182.297 392.877 174.561C392.437 170.062 392.121 169.932 385.199 171.41C376.047 173.364 373.269 173.632 362.224 173.621C354.336 173.613 345.864 172.225 341.487 170.223C340.257 169.66 339.083 169.2 338.88 169.2C337.901 169.2 332.714 166.738 330.966 165.445C329.884 164.644 328.375 163.703 327.612 163.353C325.738 162.493 321.226 158.458 315.199 152.251C312.449 149.419 309.209 146.302 307.999 145.323C306.789 144.345 304.431 142.252 302.76 140.672C301.088 139.093 297.974 136.27 295.839 134.4C293.704 132.53 290.751 129.905 289.278 128.566C287.804 127.227 286.219 125.877 285.754 125.566C284.652 124.827 275.093 115.859 273.237 113.822C272.446 112.955 270.449 110.776 268.799 108.98C267.149 107.185 265.349 105.047 264.799 104.23C264.249 103.413 263.394 102.236 262.899 101.615C262.404 100.993 261.999 100.304 261.999 100.083C261.999 99.8622 261.548 98.8982 260.996 97.9412C260.444 96.9832 259.64 95.0732 259.208 93.6952C257.681 88.8272 257.324 88.6802 254.203 91.6312ZM379.599 254.042C376.409 255.138 371.926 256.582 369.638 257.251C365.028 258.598 362.399 260.014 362.399 261.15C362.399 261.556 361.703 263.399 360.852 265.245C360.001 267.09 358.876 269.584 358.352 270.787C357.828 271.99 356.705 274.33 355.856 275.987C355.007 277.644 353.582 280.44 352.689 282.2C351.796 283.96 349.745 287.529 348.132 290.13C346.519 292.732 345.199 294.936 345.199 295.029C345.199 295.123 343.354 297.733 341.099 300.829C338.844 303.926 336.737 306.852 336.416 307.33C333.72 311.354 317.616 328.731 315.599 329.793C315.049 330.082 313.699 331.249 312.599 332.385C311.499 333.52 310.149 334.694 309.599 334.992C309.049 335.291 307.868 336.225 306.974 337.068C306.079 337.91 304.819 338.914 304.174 339.299C303.528 339.683 302.348 340.493 301.551 341.099C295.554 345.661 288.317 350.22 281.199 353.919C273.942 357.69 270.195 359.535 268.571 360.137C267.706 360.458 265.649 361.293 263.999 361.993C260.524 363.468 248.111 367.638 243.65 368.829C240.817 369.586 239.021 369.97 234.399 370.806C233.409 370.985 231.429 371.347 229.999 371.61C226.356 372.28 222.605 372.724 216.799 373.173C214.049 373.385 210.989 373.74 209.999 373.962C207.369 374.551 192.965 374.519 191.873 373.922C191.392 373.66 188.659 373.302 185.799 373.128C179.49 372.744 174.807 372.157 167.599 370.847C166.389 370.627 164.769 370.333 163.999 370.192C161.329 369.706 157.387 368.751 154.999 368.012C153.679 367.603 150.979 366.779 148.999 366.18C144.046 364.682 141.228 363.754 138.727 362.794C136.525 361.949 136.268 361.842 133.103 360.44C132.061 359.978 131.034 359.6 130.821 359.6C130.418 359.6 125.518 357.243 122.399 355.549C121.409 355.012 119.789 354.228 118.799 353.808C117.809 353.388 115.739 352.233 114.199 351.241C112.659 350.25 110.589 349.048 109.599 348.571C108.609 348.094 107.366 347.321 106.838 346.852C106.309 346.383 105.679 346 105.438 346C105.196 345.999 104.509 345.594 103.909 345.1C102.734 344.13 101.433 343.209 98.0203 340.932C96.8223 340.133 95.1213 338.786 94.2403 337.939C93.3593 337.093 92.4823 336.4 92.2913 336.4C92.1003 336.4 90.3383 334.96 88.3753 333.2C86.4123 331.44 84.6693 329.996 84.5023 329.991C84.2293 329.984 81.4083 327.254 78.1833 323.874C77.5143 323.173 75.9953 321.43 74.8073 320C73.6203 318.57 72.4413 317.22 72.1873 317C71.9343 316.78 70.8093 315.496 69.6883 314.148C68.5673 312.799 67.1883 311.198 66.6243 310.589C66.0603 309.981 65.5993 309.253 65.5993 308.971C65.5993 308.689 65.1493 308.104 64.5993 307.671C64.0493 307.239 63.5973 306.731 63.5953 306.542C63.5933 306.354 62.9643 305.41 62.1963 304.445C61.4293 303.48 59.7743 301.05 58.5183 299.045C57.2633 297.04 56.1273 295.31 55.9963 295.2C55.2733 294.596 53.6493 292.02 53.2633 290.866C53.0183 290.132 52.2053 288.692 51.4583 287.666C50.7113 286.64 49.9733 285.388 49.8183 284.885C49.6633 284.382 49.1023 283.212 48.5723 282.285C48.0423 281.358 47.6063 280.305 47.6043 279.945C47.6013 279.585 46.9693 278.374 46.1993 277.255C45.4293 276.135 44.7993 275.108 44.7993 274.972C44.7993 274.836 43.8833 272.357 42.7643 269.463C41.6443 266.568 40.4573 263.48 40.1253 262.6C39.7943 261.72 39.1803 260.23 38.7613 259.289C38.3423 258.348 37.9993 257.075 37.9993 256.459C37.9993 253.405 32.4953 252.595 21.2423 253.992C14.3973 254.842 13.6043 255.305 14.5553 257.898C14.8583 258.724 15.4173 260.57 15.7973 262C16.1773 263.43 16.6353 264.96 16.8153 265.4C16.9953 265.84 17.5943 267.28 18.1453 268.6C18.6963 269.92 19.2713 271.45 19.4223 272C19.9583 273.952 24.5533 284.615 25.2543 285.533C25.6463 286.046 26.3473 287.483 26.8113 288.725C27.6063 290.85 29.2223 294.007 31.1483 297.2C31.6123 297.97 32.1173 298.87 32.2703 299.2C32.5173 299.732 34.9443 303.72 36.3023 305.822C36.5783 306.25 36.9253 306.87 37.0733 307.2C37.2213 307.53 38.3073 309.114 39.4883 310.72C40.6683 312.325 41.7853 314.038 41.9713 314.526C42.1563 315.013 43.1123 316.309 44.0953 317.406C45.0783 318.503 46.1893 319.995 46.5633 320.723C46.9373 321.451 48.2953 323.161 49.5813 324.523C50.8663 325.885 52.4313 327.599 53.0593 328.331C57.0543 332.996 62.6013 338.831 66.8143 342.8C73.0403 348.666 72.7013 348.362 74.8063 349.967C75.7923 350.719 77.4993 352.254 78.5993 353.379C79.6993 354.504 81.5183 356.006 82.6413 356.717C83.7643 357.427 85.0243 358.386 85.4403 358.846C85.8563 359.306 86.7363 359.961 87.3963 360.302C88.0553 360.643 89.5123 361.614 90.6333 362.461C91.7543 363.307 92.8083 364 92.9743 364C93.1403 364 94.1013 364.726 95.1083 365.612C96.1163 366.499 97.6733 367.583 98.5693 368.02C99.4663 368.458 101.459 369.62 102.999 370.603C104.539 371.585 106.879 372.956 108.199 373.648C109.519 374.34 111.049 375.218 111.599 375.6C112.149 375.982 113.049 376.427 113.599 376.589C114.796 376.941 117.986 378.735 118.728 379.474C119.018 379.763 119.488 380 119.771 380C120.253 380 124.555 381.837 128.199 383.598C131.351 385.121 135.262 386.8 135.659 386.8C135.881 386.8 137.624 387.352 139.531 388.028C141.438 388.703 143.899 389.502 144.999 389.803C146.099 390.105 148.259 390.741 149.799 391.216C160.889 394.641 174.288 396.823 188.799 397.567C192.649 397.764 196.306 398.122 196.925 398.363C198.373 398.925 202.6 398.926 204.402 398.364C205.17 398.125 208.949 397.77 212.799 397.575C227.378 396.838 240.692 394.808 250.799 391.782C252.009 391.42 253.629 390.974 254.399 390.792C255.169 390.609 257.599 389.897 259.799 389.209C261.999 388.521 264.941 387.615 266.336 387.196C267.731 386.778 269.497 386.067 270.259 385.618C271.021 385.168 271.883 384.8 272.174 384.8C273.176 384.8 285.399 379.24 290.86 376.3C293.209 375.035 295.282 373.999 295.465 373.999C295.649 373.998 296.879 373.279 298.199 372.4C299.519 371.521 300.753 370.802 300.941 370.801C301.129 370.801 302.119 370.226 303.141 369.525C304.163 368.824 307.458 366.598 310.464 364.578C313.469 362.557 316.619 360.345 317.464 359.66C318.308 358.975 319.809 357.794 320.799 357.034C326.283 352.827 337.278 342.637 341.922 337.459C343.529 335.667 345.734 333.377 346.822 332.372C347.909 331.367 348.799 330.321 348.799 330.048C348.799 329.775 349.661 328.618 350.715 327.476C352.742 325.279 354.48 323.055 355.799 320.967C356.239 320.271 357.368 318.643 358.307 317.351C360.897 313.785 363.981 308.896 367.685 302.481C369.748 298.907 374.799 288.802 374.799 288.247C374.799 287.94 375.391 286.815 376.114 285.745C376.838 284.675 378.376 281.37 379.532 278.4C380.687 275.43 382.076 272.163 382.616 271.141C383.157 270.119 383.599 268.988 383.599 268.628C383.599 268.268 384.06 267.065 384.622 265.954C385.271 264.674 385.662 263.211 385.691 261.959C385.716 260.856 385.971 259.79 386.267 259.543C386.56 259.301 386.799 258.85 386.799 258.541C386.799 258.232 387.159 256.956 387.599 255.704C389.187 251.185 388.394 251.02 379.599 254.042Z" fill="#CBA120"/>
<path fill-rule="evenodd" clip-rule="evenodd" d="M183.806 9.19156C183.663 9.42256 181.921 9.59956 179.797 9.59956C176.98 9.59956 175.961 9.74056 175.721 10.1646C175.513 10.5306 174.418 10.8016 172.601 10.9346C171.061 11.0476 168.631 11.3166 167.201 11.5316C163.878 12.0316 154.566 13.9636 151.601 14.7676C150.831 14.9766 149.211 15.3976 148.001 15.7026C146.791 16.0076 145.171 16.5406 144.401 16.8876C142.935 17.5486 141.242 18.1076 135.601 19.7976C132.225 20.8086 130.768 21.3846 124.583 24.1576C122.813 24.9506 121.181 25.5996 120.955 25.5996C120.225 25.5996 111.601 30.0566 111.601 30.4346C111.601 30.6356 111.337 30.7996 111.015 30.7996C110.32 30.7996 107.813 31.9026 106.401 32.8296C105.851 33.1906 104.321 34.0746 103.001 34.7926C101.681 35.5116 100.241 36.4136 99.8009 36.7976C99.3609 37.1816 98.5299 37.7446 97.9529 38.0476C94.8899 39.6616 93.4319 40.5856 89.6009 43.3446C81.4229 49.2326 79.8289 50.4806 75.5999 54.2996C74.0779 55.6746 72.6499 56.7996 72.4279 56.7996C71.9149 56.7996 53.6009 75.1136 53.6009 75.6266C53.6009 75.8356 52.6559 77.0826 51.5009 78.3986C46.1619 84.4796 37.7579 95.6836 36.9429 97.8056C36.7789 98.2346 35.8699 99.6936 34.9229 101.048C33.9769 102.402 32.8829 104.205 32.4919 105.055C32.1009 105.905 31.3099 107.33 30.7349 108.223C29.5759 110.019 25.5759 117.851 23.5949 122.2C22.8929 123.74 21.7969 126.106 21.1599 127.457C20.5229 128.809 20.0009 130.121 20.0009 130.373C20.0009 130.625 19.6499 131.521 19.2199 132.362C18.7909 133.204 18.2359 134.772 17.9869 135.846C17.5249 137.841 17.3639 138.304 16.2419 140.86C15.8889 141.664 15.6009 142.598 15.6009 142.937C15.6009 143.276 15.4209 143.664 15.2009 143.8C14.9809 143.936 14.8009 144.566 14.8009 145.2C14.8009 145.834 14.6259 146.461 14.4119 146.593C14.0319 146.828 13.3919 148.793 12.7819 151.6C12.6139 152.37 12.2019 153.99 11.8649 155.2C11.0589 158.098 11.6749 159.031 13.6469 157.899C14.3169 157.515 15.2559 157.196 15.7329 157.19C16.2109 157.185 17.6809 156.814 19.0009 156.366C21.0489 155.672 24.9689 154.526 29.8009 153.21C36.1449 151.481 40.5879 149.359 41.0259 147.847C41.4329 146.44 44.4649 138.763 45.6259 136.2C46.2239 134.88 46.8479 133.355 47.0119 132.812C47.3609 131.657 51.6889 123.283 53.0599 121.108C53.5779 120.287 54.0009 119.446 54.0009 119.239C54.0009 119.031 54.4199 118.353 54.9329 117.731C55.4449 117.109 55.9869 116.33 56.1369 116C56.2869 115.67 56.7229 114.929 57.1049 114.353C57.4879 113.777 58.5809 112.032 59.5339 110.475C60.4859 108.918 61.5209 107.432 61.8339 107.173C62.1459 106.914 62.4009 106.523 62.4009 106.304C62.4009 106.085 62.8959 105.321 63.5009 104.607C64.1059 103.892 65.2309 102.456 66.0009 101.415C66.7709 100.374 68.0429 98.7746 68.8279 97.8606C69.6129 96.9476 70.6759 95.5696 71.1899 94.7996C71.7039 94.0296 73.2429 92.3196 74.6099 90.9996C75.9759 89.6796 77.6039 87.8796 78.2269 86.9996C79.4859 85.2216 82.2609 82.4656 84.4009 80.8686C85.1709 80.2946 86.8659 78.7696 88.1689 77.4806C89.4709 76.1916 91.1809 74.6626 91.9689 74.0826C93.3059 73.0976 94.3839 72.2066 98.2599 68.8756C99.1069 68.1466 100.183 67.3366 100.649 67.0756C101.116 66.8136 103.183 65.4296 105.243 63.9996C109.732 60.8836 114.649 57.7546 115.932 57.1996C116.444 56.9776 118.154 56.0136 119.732 55.0586C122.328 53.4876 130.887 49.1996 131.429 49.1996C131.551 49.1996 132.584 48.7616 133.726 48.2256C135.792 47.2556 137.13 46.7326 141.917 45.0256C143.3 44.5316 144.641 43.9196 144.897 43.6636C145.152 43.4086 145.602 43.1996 145.897 43.1996C146.412 43.1996 149.041 42.4346 154.229 40.7756C155.565 40.3486 157.129 39.9996 157.706 39.9996C158.282 39.9996 158.853 39.8396 158.974 39.6436C159.188 39.2976 159.622 39.1946 163.803 38.5006C164.904 38.3176 166.074 38.0006 166.403 37.7956C166.732 37.5916 167.991 37.2766 169.201 37.0976C170.411 36.9186 172.481 36.5916 173.801 36.3696C185.316 34.4396 200.812 33.8326 214.001 34.7946C217.411 35.0436 221.299 35.2986 222.641 35.3626C223.983 35.4256 225.333 35.6376 225.641 35.8326C225.949 36.0276 227.281 36.3156 228.601 36.4726C231.728 36.8446 234.656 37.4016 236.398 37.9556C237.167 38.1996 238.292 38.3996 238.898 38.3996C239.505 38.3996 240.001 38.5796 240.001 38.7996C240.001 39.0196 240.393 39.1996 240.873 39.1996C241.352 39.1996 242.297 39.3676 242.973 39.5716C243.648 39.7766 246.091 40.4346 248.401 41.0346C253.691 42.4086 257.201 43.5046 257.764 43.9596C258.005 44.1536 259.101 44.6136 260.201 44.9816C265.773 46.8446 280.197 53.4246 283.001 55.3816C283.661 55.8426 285.191 56.7396 286.401 57.3756C289.327 58.9136 293.707 61.7636 294.368 62.5606C294.66 62.9116 295.083 63.1996 295.309 63.1996C295.847 63.1996 299.716 65.7746 300.38 66.5746C300.666 66.9186 301.133 67.1996 301.418 67.1996C301.704 67.1996 302.668 67.8746 303.56 68.6996C306.042 70.9946 308.353 72.8956 310.001 73.9996C310.822 74.5496 311.988 75.5896 312.592 76.3106C313.197 77.0326 314.796 78.4676 316.146 79.5016C318.779 81.5166 324.8 87.5536 324.801 88.1776C324.801 88.3856 325.935 89.6456 327.321 90.9776C328.707 92.3096 330.402 94.2196 331.087 95.2226C331.773 96.2256 332.646 97.3046 333.028 97.6226C333.655 98.1416 336.048 101.196 337.601 103.457C337.931 103.938 338.817 105.201 339.571 106.265C342.037 109.748 344.801 113.976 344.801 114.265C344.801 114.421 345.136 114.92 345.546 115.374C345.956 115.828 346.825 117.19 347.478 118.4C348.131 119.61 349.11 121.32 349.655 122.2C351.032 124.425 356.001 134.542 356.001 135.122C356.001 135.384 356.613 136.903 357.362 138.499C358.11 140.094 358.997 142.03 359.332 142.8C360.057 144.463 362.617 152.136 362.966 153.688C363.377 155.517 364.306 155.717 371.161 155.448C379.719 155.112 381.621 154.949 382.927 154.439C383.546 154.198 384.913 154 385.965 154C387.986 154 389.201 153.192 389.201 151.847C389.201 150.402 386.461 141.601 384.951 138.2C384.658 137.54 384.076 135.92 383.656 134.6C382.065 129.596 371.188 106.8 370.392 106.8C370.177 106.8 370.001 106.564 370.001 106.276C370.001 105.989 369.406 104.774 368.679 103.576C367.951 102.379 367.096 100.96 366.779 100.423C366.461 99.8856 365.076 97.7466 363.701 95.6696C362.326 93.5926 361.201 91.7456 361.201 91.5656C361.201 91.3866 360.959 91.0956 360.663 90.9196C360.137 90.6076 358.214 88.1006 356.205 85.1096C355.654 84.2906 354.753 83.3246 354.202 82.9636C353.652 82.6026 353.201 82.0876 353.201 81.8176C353.201 80.6346 332.892 59.1166 329.601 56.8136C328.831 56.2746 327.206 54.9066 325.989 53.7726C324.773 52.6386 323.198 51.4116 322.489 51.0456C321.781 50.6786 321.201 50.2246 321.201 50.0346C321.201 49.8456 320.104 48.9056 318.764 47.9456C317.424 46.9856 315.607 45.6146 314.726 44.8996C313.846 44.1846 312.996 43.5996 312.839 43.5996C312.681 43.5996 312.203 43.2766 311.776 42.8816C310.893 42.0646 303.755 37.5996 303.331 37.5996C303.178 37.5996 302.664 37.2346 302.189 36.7886C301.191 35.8506 300.291 35.3486 291.727 30.9506C282.55 26.2386 281.681 25.8146 278.695 24.6026C277.207 23.9986 275.892 23.3456 275.772 23.1526C275.652 22.9586 275.283 22.7996 274.952 22.7996C274.621 22.7996 273.417 22.3736 272.276 21.8526C271.135 21.3326 269.571 20.7186 268.801 20.4906C261.388 18.2876 258.296 17.2776 256.301 16.4066C255.806 16.1906 254.681 15.8446 253.801 15.6386C252.921 15.4326 251.031 14.9706 249.601 14.6126C246.412 13.8146 244.462 13.3716 241.601 12.7966C240.391 12.5536 238.633 12.1846 237.695 11.9766C236.757 11.7696 235.193 11.5996 234.219 11.5996C233.245 11.5996 232.337 11.4196 232.201 11.1996C232.065 10.9796 230.924 10.7996 229.666 10.7996C228.335 10.7996 227.039 10.5616 226.566 10.2296C225.085 9.19256 184.416 8.20456 183.806 9.19156ZM222.201 10.3736C224.401 10.6146 227.371 10.9156 228.801 11.0406C230.287 11.1716 231.696 11.5346 232.09 11.8866C232.557 12.3046 233.178 12.4246 234.015 12.2566C234.751 12.1096 235.827 12.2506 236.675 12.6046C237.458 12.9316 238.649 13.1996 239.321 13.1996C239.994 13.1996 241.097 13.3676 241.773 13.5726C243.19 14.0026 244.176 14.2566 251.801 16.1536C257.123 17.4776 261.151 18.7096 263.801 19.8236C264.461 20.1016 266.351 20.7796 268.001 21.3316C272.846 22.9506 273.654 23.2626 276.631 24.6656C278.187 25.3996 279.658 25.9996 279.9 25.9996C280.272 25.9996 285.18 28.3046 287.801 29.7096C288.789 30.2396 297.686 35.0406 299.601 36.0766C300.371 36.4936 301.567 37.2316 302.259 37.7166C302.952 38.2026 305.107 39.5896 307.048 40.7996C308.99 42.0096 311.506 43.7486 312.64 44.6636C313.773 45.5786 315.219 46.5956 315.852 46.9226C316.485 47.2496 317.345 47.8966 317.764 48.3586C318.183 48.8216 318.704 49.1996 318.923 49.1996C319.142 49.1996 320.195 49.9646 321.263 50.8996C325.771 54.8476 327.479 56.2886 328.801 57.2616C330.508 58.5166 348.001 75.9556 348.001 76.4016C348.001 76.5756 349.036 77.9016 350.301 79.3456C351.566 80.7906 353.193 82.7436 353.917 83.6866C354.64 84.6286 355.855 86.1816 356.617 87.1376C357.378 88.0936 358.001 89.0006 358.001 89.1546C358.001 89.3076 358.586 90.0726 359.301 90.8546C360.016 91.6366 361.568 93.8266 362.75 95.7216C363.932 97.6156 365.012 99.2186 365.15 99.2826C365.288 99.3466 365.809 100.21 366.307 101.2C367.413 103.398 368.704 105.663 370.091 107.841C371.712 110.386 379.513 126.054 379.829 127.4C379.984 128.06 380.251 128.78 380.421 129C380.699 129.359 382.227 133.241 385.067 140.8C386.253 143.959 388.001 150.532 388.001 151.836C388.001 153.022 386.718 153.327 379.601 153.83C377.951 153.947 376.241 154.219 375.801 154.434C375.361 154.65 372.593 154.775 369.65 154.713L364.3 154.6L363.16 151C362.533 149.02 361.812 146.95 361.557 146.4C361.302 145.85 360.95 145.04 360.775 144.6C360.599 144.16 360.189 143.17 359.863 142.4C359.538 141.63 358.972 140.057 358.606 138.905C358.239 137.752 357.774 136.707 357.57 136.581C357.367 136.456 357.201 136.005 357.201 135.58C357.201 135.155 356.331 133.141 355.268 131.104C349.352 119.768 348.358 117.924 347.329 116.376C346.708 115.443 346.021 114.393 345.801 114.041C343.281 110.011 341.066 106.8 340.807 106.8C340.632 106.8 340.382 106.395 340.253 105.9C340.123 105.405 339.295 104.1 338.412 103C337.529 101.9 336.17 100.055 335.392 98.8996C334.613 97.7446 333.827 96.7996 333.645 96.7996C333.463 96.7996 332.662 95.8176 331.865 94.6176C331.068 93.4166 329.879 92.0376 329.223 91.5526C328.567 91.0676 327.219 89.5746 326.227 88.2356C324.068 85.3196 318.903 80.2096 316.401 78.5156C315.411 77.8456 313.881 76.4926 313.001 75.5086C312.121 74.5246 310.861 73.3866 310.201 72.9786C309.541 72.5716 308.265 71.5996 307.366 70.8186C304.522 68.3516 296.447 62.3996 295.943 62.3996C295.76 62.3996 294.545 61.5896 293.243 60.5996C291.941 59.6096 290.738 58.7996 290.57 58.7996C290.402 58.7996 289.98 58.5466 289.632 58.2376C289.285 57.9286 287.881 57.1096 286.512 56.4176C285.143 55.7256 283.917 54.9866 283.786 54.7756C283.656 54.5646 280.816 53.0656 277.475 51.4446C268.671 47.1716 266.187 46.0966 261.201 44.3996C259.991 43.9876 258.011 43.2706 256.801 42.8046C252.768 41.2536 247.49 39.6666 243.601 38.8356C241.376 38.3606 239.945 38.0156 236.955 37.2316C236.049 36.9936 234.579 36.7996 233.688 36.7996C232.797 36.7996 232.002 36.6036 231.923 36.3646C231.843 36.1256 230.883 35.9196 229.789 35.9076C228.696 35.8956 227.351 35.6986 226.801 35.4706C223.139 33.9506 200.568 33.0636 188.401 33.9626C185.211 34.1976 181.161 34.4966 179.401 34.6256C177.641 34.7546 176.03 35.0266 175.821 35.2296C175.612 35.4336 174.712 35.6076 173.821 35.6176C172.93 35.6266 171.481 35.8946 170.601 36.2116C169.721 36.5286 168.443 36.7906 167.761 36.7936C167.079 36.7966 165.999 36.9606 165.361 37.1576C164.723 37.3546 162.401 37.9116 160.201 38.3956C154.358 39.6796 147.377 41.8186 143.741 43.4386C143.047 43.7466 142.327 44.0006 142.141 44.0026C141.571 44.0076 134.734 46.6826 132.503 47.7736C131.349 48.3376 130.305 48.7996 130.183 48.7996C129.652 48.7996 119.898 53.8016 116.801 55.6616C114.931 56.7846 112.582 58.1756 111.58 58.7516C108.425 60.5666 101.833 65.0706 101.039 65.9526C100.62 66.4186 100.102 66.7996 99.8879 66.7996C99.6729 66.7996 98.8009 67.3846 97.9489 68.0996C94.9819 70.5906 93.3929 71.8576 92.2009 72.6846C91.5409 73.1426 89.8219 74.6606 88.3799 76.0586C86.9379 77.4566 85.1029 79.0966 84.3009 79.7046C82.1719 81.3166 78.3009 85.1836 77.1969 86.7996C76.6709 87.5696 75.0369 89.3866 73.5659 90.8366C72.0949 92.2866 70.4419 94.1766 69.8939 95.0366C69.3449 95.8966 68.4249 97.0356 67.8489 97.5696C67.2729 98.1026 66.8009 98.7126 66.8009 98.9246C66.8009 99.1366 66.1259 100.087 65.3009 101.035C62.4429 104.322 61.9769 104.956 61.7459 105.876C61.6189 106.384 61.3649 106.8 61.1829 106.8C60.8209 106.8 57.6089 111.648 54.8229 116.4C53.8549 118.05 52.3199 120.66 51.4119 122.2C49.5369 125.378 46.4689 131.606 45.1899 134.832C44.7169 136.024 43.9859 137.855 43.5659 138.9C41.7899 143.311 41.1199 145.046 40.8979 145.8C39.9069 149.172 38.9459 149.635 24.6009 153.644C23.7209 153.89 22.6409 154.244 22.2009 154.432C20.9549 154.962 16.4029 156.434 14.3139 156.981C12.2609 157.52 11.7889 157.219 12.5059 155.831C12.7239 155.408 13.2219 153.788 13.6119 152.231C14.8759 147.184 15.5009 145.041 16.3579 142.8C16.8219 141.59 17.2009 140.285 17.2009 139.9C17.2009 139.515 17.3779 139.2 17.5929 139.2C17.8089 139.2 18.0989 138.705 18.2369 138.1C18.5989 136.519 19.4409 133.982 20.1359 132.382C20.4659 131.622 21.3179 129.56 22.0299 127.8C24.3749 122.001 29.4549 111.888 32.2889 107.377C32.5569 106.949 33.1369 105.88 33.5779 105C34.5379 103.082 39.9529 94.6786 42.2139 91.5976C43.1009 90.3886 44.1419 88.9496 44.5269 88.3996C47.1609 84.6396 47.9949 83.6156 52.3009 78.8506C53.4559 77.5726 54.4009 76.3366 54.4009 76.1036C54.4009 75.5976 71.9419 58.0806 73.0399 57.4906C73.4579 57.2656 74.8119 56.1636 76.0469 55.0406C77.2829 53.9176 79.3129 52.1896 80.5579 51.1996C81.8039 50.2096 83.4029 48.9346 84.1119 48.3656C84.8209 47.7976 85.9859 46.9936 86.7009 46.5796C87.4159 46.1656 88.0009 45.7076 88.0009 45.5616C88.0009 45.4156 88.5409 45.0726 89.2009 44.7996C89.8609 44.5266 90.4009 44.1666 90.4009 43.9996C90.4009 43.8326 91.6469 42.9096 93.1689 41.9486C94.6909 40.9866 97.0579 39.4796 98.4299 38.5996C99.8009 37.7196 101.21 36.8196 101.562 36.5986C104.777 34.5816 120.229 26.7226 122.001 26.2026C122.551 26.0406 123.991 25.3966 125.201 24.7706C127.43 23.6176 129.066 22.9746 133.401 21.5486C134.721 21.1146 135.972 20.5886 136.181 20.3796C136.39 20.1706 137.029 19.9996 137.601 19.9996C138.173 19.9996 138.812 19.8566 139.021 19.6816C139.23 19.5066 140.121 19.1256 141.001 18.8356C141.881 18.5446 143.141 18.0746 143.801 17.7906C144.461 17.5056 147.521 16.7006 150.601 16.0016C153.681 15.3026 156.614 14.5656 157.12 14.3646C157.625 14.1636 158.47 13.9996 158.996 13.9996C159.523 13.9996 160.065 13.8196 160.201 13.5996C160.337 13.3796 161.203 13.1966 162.125 13.1936C163.047 13.1906 164.517 12.9386 165.393 12.6336C166.268 12.3286 167.537 12.1696 168.211 12.2786C169.039 12.4126 169.611 12.2696 169.969 11.8386C170.36 11.3676 171.216 11.1996 173.226 11.1996C174.726 11.1996 176.065 11.0196 176.201 10.7996C176.337 10.5796 178.013 10.3966 179.925 10.3936C181.837 10.3906 183.671 10.2096 184.001 9.99256C184.797 9.46856 216.863 9.78856 222.201 10.3736ZM190.445 70.6996C188.871 73.7546 188.562 74.2836 186.173 77.9996C185.678 78.7696 184.936 80.0296 184.524 80.7996C184.112 81.5696 183.241 82.9906 182.588 83.9566C181.935 84.9236 181.218 86.0036 180.995 86.3566C179.875 88.1296 178.182 90.6226 177.978 90.7996C177.852 90.9096 177.168 91.9896 176.458 93.1996C175.749 94.4096 174.552 96.2096 173.799 97.1996C173.046 98.1896 171.438 100.35 170.225 102C166.747 106.732 162.944 111.737 162.261 112.483C161.916 112.859 160.563 114.479 159.252 116.083C156.542 119.401 141.163 134.8 140.559 134.8C140.341 134.8 139.374 135.558 138.41 136.484C136.507 138.312 135.556 137.956 137.298 136.068C138.438 134.832 142.068 129.428 143.524 126.8C144.072 125.81 144.944 124.491 145.461 123.869C145.978 123.247 146.401 122.56 146.401 122.341C146.401 122.123 146.909 121.192 147.529 120.272C148.774 118.426 155.728 104.71 156.2 103.17C156.363 102.637 156.898 101.3 157.389 100.2C157.88 99.0996 158.51 97.3896 158.788 96.3996C159.066 95.4096 159.435 94.1496 159.607 93.5996C160.771 89.8786 161.008 84.7166 160.19 80.9056C159.36 77.0406 153.601 73.8666 153.601 77.2746C153.601 78.2476 148.877 87.7016 146.772 90.9406C145.908 92.2706 145.201 93.4936 145.201 93.6586C145.201 93.8246 144.706 94.7336 144.101 95.6796C143.496 96.6256 142.821 97.6976 142.601 98.0626C142.381 98.4266 141.436 99.8426 140.501 101.208C139.566 102.574 138.801 103.844 138.801 104.032C138.801 104.219 138.453 104.558 138.028 104.786C137.603 105.013 137.13 105.604 136.976 106.1C136.823 106.595 136.082 107.72 135.33 108.6C131.54 113.036 130.401 114.453 130.401 114.731C130.401 115.161 114.47 130.978 112.921 132.085C112.218 132.588 110.342 133.9 108.755 135C107.167 136.1 105.472 137.405 104.988 137.9C104.505 138.395 103.874 138.8 103.587 138.8C103.299 138.8 102.78 139.045 102.432 139.344C102.085 139.643 100.721 140.469 99.4009 141.18C98.0809 141.891 96.7309 142.696 96.4009 142.97C95.8939 143.391 93.9849 144.418 89.8009 146.522C89.3609 146.743 88.7309 147.078 88.4009 147.265C88.0709 147.452 87.5309 147.71 87.2009 147.839C85.9469 148.327 84.9039 148.78 81.8009 150.182C80.0409 150.978 78.0609 151.872 77.4009 152.169C76.7409 152.467 75.3479 153.015 74.3049 153.387C73.2619 153.759 72.3069 154.229 72.1819 154.432C72.0559 154.634 71.6079 154.8 71.1859 154.8C70.5339 154.8 67.7539 155.925 65.0759 157.273C64.6779 157.473 63.3279 157.968 62.0759 158.372C59.3369 159.256 52.1179 161.854 51.0009 162.358C48.1229 163.655 47.2059 164 46.6349 164C46.2799 164 45.6779 164.172 45.2959 164.382C44.9139 164.591 41.0909 165.861 36.8009 167.202C32.5109 168.544 28.4609 169.886 27.8009 170.184C26.6979 170.683 25.3829 171.069 21.6009 172.001C18.4739 172.773 12.1509 174.633 9.7239 175.495C6.6239 176.597 6.29791 179.317 6.31091 204C6.31991 219.859 6.64091 227.718 7.34191 229.233C7.50391 229.582 7.79591 231.112 7.99191 232.633C8.72591 238.33 9.0869 239.005 11.1819 238.612C13.6849 238.143 17.7129 237.564 21.0009 237.201C22.7609 237.006 25.2809 236.672 26.6009 236.459C30.1929 235.878 47.4329 236.072 48.0609 236.7C48.3359 236.975 49.4219 237.2 50.4749 237.2C53.4989 237.2 60.6519 239.013 65.0009 240.883C74.3629 244.907 75.2899 245.58 86.9299 256.823C90.9289 260.686 95.0249 264.498 96.0329 265.294C97.0399 266.09 98.6599 267.526 99.6329 268.486C100.605 269.445 102.121 270.761 103.001 271.411C103.881 272.061 105.421 273.416 106.424 274.424C107.426 275.431 109.046 276.816 110.024 277.502C111.001 278.188 112.778 279.75 113.972 280.974C115.166 282.198 116.337 283.2 116.575 283.2C117.104 283.2 133.3 299.49 135.266 302C136.458 303.521 138.192 306.013 139.274 307.76C140.294 309.407 142.801 315.423 142.801 316.223C142.801 316.76 142.961 317.2 143.158 317.2C143.354 317.2 143.627 317.65 143.765 318.2C144.176 319.836 145.244 319.383 148.238 316.3C151.582 312.858 153.197 310.722 153.211 309.727C153.216 309.327 153.576 307.937 154.011 306.638C155.225 303.01 155.09 299.493 153.503 293.4C152.68 290.238 148.978 282.563 146.901 279.712C146.406 279.032 146.001 278.289 146.001 278.061C146.001 277.832 145.665 277.41 145.255 277.123C144.845 276.835 143.932 275.745 143.227 274.7C142.521 273.655 141.789 272.8 141.6 272.8C141.41 272.8 141.134 272.418 140.985 271.95C140.837 271.483 138.227 268.558 135.185 265.45C121.22 251.183 120.651 243.963 132.537 231.821C134.702 229.609 136.682 227.584 136.937 227.321C137.442 226.799 142.124 223.248 143.161 222.6C143.513 222.38 144.198 221.852 144.682 221.427C146.139 220.15 150.715 217.043 155.701 213.944C158.286 212.338 160.401 210.884 160.401 210.712C160.401 210.54 160.597 210.4 160.837 210.4C161.078 210.4 163.138 209.23 165.416 207.8C167.694 206.37 169.734 205.2 169.949 205.2C170.164 205.2 170.848 204.789 171.47 204.287C172.687 203.305 177.377 200.4 177.745 200.4C177.868 200.4 179.101 199.682 180.485 198.804C181.869 197.926 183.183 197.206 183.405 197.204C183.627 197.202 184.027 196.851 184.293 196.424C184.56 195.997 185.552 195.305 186.497 194.887C187.442 194.469 189.006 193.603 189.972 192.963C190.938 192.324 192.136 191.53 192.633 191.2C193.131 190.87 195.307 189.457 197.469 188.061C199.632 186.665 202.121 184.997 203.001 184.355C203.881 183.713 205.591 182.525 206.801 181.715C208.011 180.906 209.721 179.652 210.601 178.929C211.481 178.207 213.164 176.847 214.341 175.908C217.452 173.425 228.32 162.84 229.442 161.2C229.968 160.43 230.877 159.08 231.461 158.2C232.045 157.32 232.675 156.54 232.862 156.467C233.048 156.393 233.201 156.14 233.201 155.904C233.201 155.669 233.629 154.915 234.152 154.229C236.119 151.649 238.388 144.781 238.396 141.38C238.399 140.269 238.6 139.161 238.844 138.917C239.11 138.651 239.196 137.78 239.058 136.737C238.932 135.782 238.66 133.51 238.454 131.689C238.128 128.816 237.266 126.4 236.565 126.4C235.977 126.4 234.801 127.288 234.801 127.732C234.801 128.284 220.014 143.194 218.401 144.268C217.851 144.635 216.394 145.849 215.163 146.967C211.408 150.379 208.476 152.8 208.102 152.8C207.906 152.8 207.039 153.43 206.174 154.2C205.309 154.97 204.483 155.6 204.339 155.6C204.195 155.6 203.295 156.241 202.339 157.025C201.383 157.808 200.284 158.708 199.896 159.025C199.509 159.341 199.094 159.6 198.974 159.6C198.61 159.6 193.81 162.922 193.668 163.272C193.594 163.453 193.321 163.6 193.061 163.6C192.8 163.6 191.9 164.066 191.061 164.636C190.223 165.207 188.44 166.217 187.101 166.881C185.761 167.546 183.798 168.699 182.737 169.445C181.677 170.19 180.633 170.8 180.419 170.8C179.992 170.8 178.985 171.223 174.286 173.374C172.572 174.158 170.932 174.8 170.642 174.8C170.351 174.8 169.486 175.225 168.72 175.745C167.953 176.265 166.803 176.783 166.164 176.897C165.524 177.01 164.16 177.373 163.132 177.703C160.738 178.472 160.945 177.982 164.104 175.4C165.45 174.3 167.013 172.942 167.577 172.383C168.14 171.824 169.321 170.84 170.201 170.198C171.081 169.555 172.899 167.973 174.242 166.682C175.584 165.39 177.138 164.034 177.694 163.667C178.982 162.818 193.498 148.57 199.801 141.968C204.745 136.79 205.728 135.639 212.927 126.6C213.452 125.94 214.115 124.95 214.4 124.4C214.685 123.85 215.162 123.256 215.459 123.08C215.757 122.904 216.001 122.558 216.001 122.312C216.001 122.065 216.255 121.579 216.565 121.231C217.285 120.425 219.934 115.575 222.044 111.2C225.125 104.812 226.396 95.6196 224.816 91.1536C222.418 84.3746 220.951 83.0936 218.571 85.6996C217.135 87.2716 215.601 89.4426 215.601 89.9026C215.601 90.0876 214.926 90.9686 214.101 91.8596C213.276 92.7516 211.937 94.4536 211.126 95.6406C209.231 98.4136 207.044 101.163 204.901 103.464C203.966 104.468 203.201 105.508 203.201 105.775C203.201 106.042 202.729 106.697 202.152 107.23C201.574 107.764 200.152 109.383 198.992 110.828C197.831 112.273 196.129 114.163 195.209 115.028C194.288 115.893 193.296 117.056 193.002 117.614C192.336 118.881 175.218 136 174.616 136C174.374 136 173.107 137.08 171.801 138.4C170.495 139.72 169.231 140.8 168.992 140.8C168.753 140.8 167.947 141.43 167.201 142.2C166.455 142.97 165.641 143.6 165.392 143.6C165.144 143.6 164.514 144.053 163.994 144.608C163.473 145.162 162.227 146.12 161.224 146.737C150.89 153.092 145.517 155.511 149.786 151.886C152.459 149.616 154.704 147.361 156.447 145.195C157.242 144.207 159.783 141.508 162.094 139.199C164.406 136.89 166.773 134.267 167.355 133.37C167.938 132.474 168.953 131.342 169.612 130.855C170.271 130.368 171.284 129.211 171.863 128.285C172.442 127.358 173.527 125.88 174.274 125C175.022 124.12 176.244 122.68 176.99 121.8C178.372 120.171 181.201 116.085 181.201 115.717C181.201 115.606 181.651 115.161 182.201 114.729C182.751 114.296 183.201 113.694 183.201 113.392C183.201 113.089 183.606 112.399 184.101 111.859C184.596 111.319 185.358 110.185 185.794 109.339C186.23 108.492 187.367 106.564 188.321 105.053C190.295 101.928 191.435 99.5766 193.195 94.9996C193.871 93.2396 194.575 91.4396 194.759 90.9996C196.362 87.1626 197.034 77.1176 195.839 74.8616C195.53 74.2776 194.78 72.7646 194.173 71.4996C192.792 68.6196 191.643 68.3736 190.445 70.6996ZM193.787 72.6996C194.422 73.9646 195.1 75.1066 195.293 75.2366C195.895 75.6426 195.433 85.9666 194.703 88.4406C193.426 92.7696 189.746 101.437 188.606 102.8C188.33 103.13 187.656 104.21 187.108 105.2C184.29 110.287 181.813 114.222 181.185 114.61C180.967 114.745 179.895 116.148 178.803 117.728C177.712 119.307 176.006 121.59 175.012 122.8C174.018 124.01 172.666 125.72 172.007 126.6C171.348 127.48 170.132 128.92 169.305 129.8C168.479 130.68 167.12 132.26 166.285 133.31C165.45 134.361 162.839 137.187 160.484 139.59C158.128 141.994 155.121 145.199 153.801 146.712C152.481 148.225 150.605 150.079 149.632 150.831C145.77 153.818 144.919 155.2 146.943 155.2C148.779 155.2 160.603 148.598 164.474 145.412C165.283 144.745 166.7 143.66 167.622 143C168.544 142.34 170.506 140.675 171.982 139.3C173.457 137.925 174.87 136.8 175.12 136.8C175.711 136.8 193.086 119.311 193.798 118C194.097 117.45 195.137 116.259 196.109 115.354C197.082 114.449 198.393 113.009 199.022 112.154C199.652 111.299 201.075 109.576 202.184 108.325C204.939 105.217 206.464 103.298 207.341 101.835C207.748 101.156 208.501 100.23 209.013 99.7776C210.316 98.6276 213.201 94.7256 213.201 94.1136C213.201 93.8346 213.571 93.3796 214.024 93.1026C214.476 92.8266 215.232 91.9696 215.703 91.1996C216.173 90.4296 216.668 89.7096 216.801 89.5996C216.934 89.4896 217.433 88.7576 217.909 87.9736C220.094 84.3746 221.02 84.5426 222.972 88.8916C223.591 90.2706 224.256 91.7126 224.45 92.0946C224.912 93.0086 224.902 100.201 224.436 101.772C222.785 107.338 221.901 109.645 219.984 113.4C217.163 118.924 212.611 125.926 209.901 128.908C209.296 129.574 208.801 130.258 208.801 130.428C208.801 130.598 207.631 132.012 206.201 133.57C204.771 135.128 203.601 136.554 203.601 136.739C203.601 137.51 180.687 160.053 173.949 165.91C172.108 167.511 169.368 169.896 167.861 171.21C166.353 172.525 164.954 173.6 164.75 173.6C164.547 173.6 163.589 174.365 162.622 175.3C161.656 176.235 160.401 177.323 159.833 177.719C158.159 178.884 158.477 179.659 160.501 179.35C161.436 179.207 162.381 178.96 162.601 178.8C162.821 178.641 164.081 178.186 165.401 177.789C166.721 177.393 167.981 176.949 168.201 176.803C168.421 176.657 169.501 176.224 170.601 175.84C174.973 174.313 188.373 167.625 191.367 165.474C192.036 164.994 192.895 164.42 193.274 164.2C196.534 162.308 199.556 160.336 199.983 159.822C200.267 159.48 200.704 159.2 200.954 159.2C201.204 159.2 201.857 158.795 202.405 158.3C202.953 157.805 204.121 156.87 205.001 156.222C205.881 155.574 206.745 154.809 206.921 154.522C207.097 154.235 207.529 154 207.882 154C208.235 154 209.467 153.145 210.619 152.1C211.772 151.055 214.027 149.12 215.631 147.8C217.235 146.48 222.069 141.927 226.374 137.683C230.679 133.438 234.381 129.838 234.601 129.683C234.821 129.527 235.194 129.051 235.43 128.624C235.665 128.197 236.06 127.78 236.306 127.698C236.874 127.509 238.014 131.265 237.725 132.371C237.606 132.826 237.811 134.123 238.181 135.253C238.677 136.771 238.75 137.583 238.458 138.355C238.241 138.93 237.952 140.352 237.816 141.516C237.68 142.68 237.419 144.03 237.236 144.516C237.053 145.002 236.676 146.12 236.397 147C235.55 149.678 232.518 155.77 231.634 156.57C231.176 156.985 230.801 157.544 230.801 157.813C230.801 158.082 230.507 158.546 230.147 158.845C229.787 159.144 229.064 160.066 228.541 160.894C227.56 162.45 218.081 171.933 216.368 173.075C215.836 173.43 214.771 174.312 214.001 175.037C212.559 176.394 212.196 176.671 206.974 180.4C205.28 181.61 203.405 182.96 202.808 183.4C201.006 184.727 192.401 190.4 192.19 190.4C192.081 190.4 191.14 190.993 190.097 191.717C189.054 192.442 187.301 193.551 186.201 194.183C185.101 194.814 184.11 195.465 184 195.629C183.889 195.793 182.629 196.54 181.2 197.289C177.396 199.283 176.739 199.685 175.287 200.9C174.564 201.505 173.782 202 173.549 202C173.315 202 172.591 202.38 171.938 202.845C171.286 203.309 169.908 204.138 168.876 204.687C167.203 205.576 163.332 208.007 160.317 210.061C159.721 210.468 159.138 210.8 159.021 210.8C158.816 210.8 155.336 212.979 150.801 215.946C149.591 216.738 147.552 218.199 146.269 219.193C144.986 220.187 143.443 221.27 142.839 221.6C137.922 224.289 128.105 234.621 125.656 239.685C123.389 244.375 122.716 250.197 124.214 252.176C124.537 252.604 124.804 253.234 124.809 253.576C124.813 253.919 125.398 255.086 126.109 256.168C126.819 257.251 127.717 258.655 128.103 259.287C128.49 259.92 131.021 262.634 133.728 265.319C136.435 268.004 139.077 270.83 139.6 271.6C140.123 272.37 141.559 274.17 142.791 275.6C144.024 277.03 145.254 278.65 145.526 279.2C145.798 279.75 146.741 281.37 147.62 282.8C156.033 296.476 156.017 307.735 147.573 315.771L144.723 318.483L143.962 317.232C143.543 316.544 143.201 315.465 143.201 314.835C143.201 312.955 137.813 302.8 136.816 302.8C136.617 302.8 136.328 302.395 136.174 301.9C135.86 300.894 119.238 283.922 117.476 282.809C116.857 282.418 115.16 280.951 113.705 279.549C112.25 278.147 110.758 276.82 110.389 276.6C110.02 276.38 108.476 275.09 106.959 273.734C98.4129 266.091 96.6069 264.52 95.4619 263.733C94.7679 263.256 91.1449 259.791 87.4109 256.033C83.6759 252.275 80.4869 249.2 80.3239 249.2C80.1609 249.2 79.1279 248.435 78.0289 247.5C75.1069 245.014 73.7269 244 73.2659 244C73.0419 244 72.6199 243.764 72.3299 243.476C71.8329 242.983 69.8559 241.989 65.5469 240.066C56.0389 235.824 37.8609 234.108 22.2009 235.976C14.9769 236.837 13.3759 237.092 12.0959 237.582C10.3819 238.238 9.73691 237.939 9.39291 236.327C9.23591 235.597 8.9709 234.82 8.8019 234.6C8.6329 234.38 8.48191 233.48 8.46491 232.6C8.44891 231.72 8.22391 228.93 7.96591 226.4C7.03691 217.292 7.48291 178.61 8.53591 176.905C8.75291 176.554 10.9909 175.859 16.2009 174.525C17.5209 174.187 19.0509 173.77 19.6009 173.6C20.1509 173.43 21.7349 172.969 23.1199 172.576C24.5059 172.183 25.7309 171.713 25.8439 171.531C25.9559 171.349 26.4519 171.2 26.9449 171.2C27.4379 171.2 28.0119 171.039 28.2209 170.841C28.4299 170.644 30.0409 170.111 31.8009 169.657C36.7379 168.382 47.1469 164.909 48.9559 163.932C49.3709 163.708 51.1709 163.086 52.9559 162.55C54.7409 162.014 57.5629 161.041 59.2279 160.388C60.8929 159.735 62.4209 159.2 62.6219 159.2C62.8239 159.2 63.8909 158.759 64.9949 158.221C67.9019 156.801 74.9079 153.998 75.5469 153.999C76.0809 154 78.8129 152.648 80.0009 151.795C80.3309 151.558 81.5909 151.027 82.8009 150.615C85.2759 149.772 95.5629 144.654 97.4029 143.35C98.0619 142.883 99.4409 142.121 100.467 141.656C101.493 141.191 102.575 140.569 102.87 140.274C103.166 139.978 103.889 139.481 104.477 139.168C106.287 138.207 110.511 135.166 112.292 133.542C113.222 132.694 114.128 132 114.306 132C114.739 132 130.958 115.729 131.157 115.096C131.242 114.823 132.142 113.665 133.157 112.522C135.909 109.421 137.201 107.74 137.201 107.261C137.201 107.025 137.63 106.42 138.154 105.916C139.266 104.846 141.849 101.058 143.415 98.1996C144.017 97.0996 144.804 95.9166 145.163 95.5706C145.522 95.2246 146.167 94.1446 146.597 93.1706C147.027 92.1966 147.512 91.3036 147.675 91.1856C148.288 90.7416 154.401 78.3986 154.401 77.6046C154.401 75.2406 158.538 78.0016 159.046 80.7036C159.181 81.4216 159.451 82.1066 159.646 82.2276C160.119 82.5196 160.101 88.2186 159.622 89.7716C159.414 90.4466 158.847 92.6196 158.362 94.5996C157.877 96.5796 156.856 99.5496 156.093 101.2C152.688 108.565 147.57 118.72 146.63 119.978C146.064 120.735 145.601 121.527 145.601 121.736C145.601 121.946 145.016 123.038 144.301 124.162C143.586 125.287 142.821 126.5 142.601 126.857C142.381 127.215 141.556 128.473 140.768 129.654C139.98 130.834 138.753 132.734 138.042 133.875C137.331 135.017 136.626 136.007 136.475 136.075C135.818 136.374 134.386 139.6 134.911 139.6C135.643 139.6 139.201 137.308 139.201 136.836C139.201 136.626 139.606 136.326 140.101 136.169C141.487 135.731 158.255 119.128 159.789 116.675C160.227 115.974 160.981 115.083 161.463 114.695C161.946 114.307 163.022 113.047 163.855 111.895C164.687 110.743 165.689 109.44 166.08 109C166.471 108.56 167.198 107.631 167.696 106.937C169.519 104.393 172.382 100.568 173.378 99.3446C173.941 98.6546 174.401 97.9176 174.401 97.7066C174.401 97.4956 174.745 97.0126 175.165 96.6326C175.585 96.2516 176.039 95.5036 176.173 94.9706C176.307 94.4366 176.588 93.9996 176.798 93.9996C177.009 93.9996 177.478 93.4236 177.843 92.7196C178.207 92.0146 178.706 91.2256 178.953 90.9656C179.199 90.7056 180.121 89.3616 181.001 87.9786C181.881 86.5966 182.871 85.0626 183.201 84.5706C184.839 82.1286 188.001 76.7946 188.001 76.4736C188.001 76.2736 188.557 75.4096 189.237 74.5546C189.917 73.6996 190.718 72.4146 191.017 71.6996C191.795 69.8366 192.475 70.0826 193.787 72.6996ZM271.801 291.6C271.46 292.26 271.27 292.8 271.38 292.8C271.49 292.8 271.86 292.26 272.201 291.6C272.542 290.94 272.732 290.4 272.622 290.4C272.512 290.4 272.142 290.94 271.801 291.6Z" fill="#989EB2"/>
<path fill-rule="evenodd" clip-rule="evenodd" d="M62.5759 66.0998L61.4009 67.3998L62.7009 66.2248C63.9129 65.1298 64.1849 64.7998 63.8759 64.7998C63.8069 64.7998 63.2219 65.3848 62.5759 66.0998ZM255.532 89.0888C251.491 92.3958 248.299 97.3848 247.525 101.6C247.303 102.81 247.025 104.32 246.908 104.956C246.371 107.857 248.985 117.533 251.439 121.729C252.188 123.009 252.801 124.136 252.801 124.233C252.801 125.93 261.171 136.61 267.125 142.511C278.117 153.405 280.05 160.2 274.66 169C272.516 172.501 267.067 178.8 266.182 178.8C265.933 178.8 265.105 179.475 264.341 180.3C263.577 181.125 261.816 182.61 260.428 183.6C259.04 184.59 257.341 185.855 256.653 186.411C255.964 186.967 254.001 188.317 252.291 189.411C250.58 190.505 248.164 192.165 246.921 193.1C245.678 194.035 244.501 194.8 244.304 194.8C244.108 194.8 243.375 195.205 242.674 195.701C241.049 196.851 240.176 197.389 238.228 198.441C237.363 198.909 235.473 200.056 234.028 200.991C231.536 202.603 226.257 205.807 221.277 208.729C220.032 209.46 218.92 210.201 218.807 210.375C218.694 210.55 218.214 210.813 217.741 210.96C217.268 211.108 215.411 212.212 213.615 213.414C211.819 214.616 210.259 215.6 210.149 215.6C210.038 215.6 209.358 216.05 208.637 216.6C207.915 217.15 207.184 217.6 207.012 217.6C206.84 217.6 205.485 218.5 204.001 219.6C202.517 220.7 201.199 221.6 201.072 221.6C200.766 221.6 198.137 223.434 194.201 226.392C192.441 227.715 190.073 229.423 188.938 230.187C187.804 230.952 186.814 231.737 186.738 231.933C186.663 232.128 185.341 233.334 183.801 234.611C180.421 237.416 175.492 242.335 173.594 244.8C172.832 245.79 171.872 246.96 171.462 247.4C169.582 249.414 165.937 256.101 164.546 260.087C162.718 265.322 162.826 278.337 164.714 280.5C165.925 281.887 166.658 281.484 169 278.141C170.059 276.63 179.498 267.257 181.906 265.326C182.948 264.489 184.71 262.904 185.82 261.803C186.931 260.701 188.566 259.302 189.453 258.692C190.34 258.083 191.58 257.048 192.208 256.392C192.837 255.737 193.559 255.2 193.814 255.2C194.069 255.2 194.614 254.828 195.026 254.372C196.224 253.049 206.167 246.106 210.746 243.396C211.485 242.958 213.105 241.968 214.346 241.195C215.586 240.422 218.311 238.99 220.401 238.013C222.491 237.036 224.261 236.093 224.334 235.918C224.408 235.743 224.643 235.6 224.856 235.6C225.238 235.6 226.988 234.851 231.04 232.954C232.161 232.429 233.331 231.997 233.64 231.994C233.948 231.991 234.989 231.714 235.952 231.379C236.915 231.043 237.795 230.861 237.908 230.974C238.168 231.234 235.683 234.076 234.535 234.831C233.47 235.531 227.778 240.407 224.808 243.164C223.601 244.284 222.443 245.2 222.234 245.2C221.669 245.2 202.646 264.505 198.55 269.237C192.873 275.794 192.642 276.07 190.563 278.8C187.53 282.784 183.649 288.689 183.618 289.369C183.609 289.571 183.343 290.022 183.029 290.369C180.932 292.686 177.573 301.14 176.399 307.05C175.198 313.103 178.456 323.2 181.61 323.2C182.72 323.2 184.372 321.382 188.013 316.156C190.191 313.03 194.17 307.855 196.201 305.509C197.521 303.983 199.098 301.991 199.705 301.081C200.312 300.172 201.078 299.277 201.407 299.092C201.737 298.908 202.918 297.552 204.032 296.079C210.802 287.123 228.822 269.72 238.082 263.194C239.908 261.908 242.139 260.303 243.04 259.628C243.942 258.953 244.802 258.4 244.952 258.4C245.103 258.4 246.496 257.68 248.049 256.8C252.011 254.555 253.147 254.639 250.701 256.996C243.949 263.5 230.539 278.026 229.84 279.591C229.641 280.036 229.336 280.4 229.162 280.4C228.886 280.4 225.314 284.914 223.601 287.427C223.271 287.912 222.236 289.311 221.301 290.537C220.366 291.763 219.601 292.931 219.601 293.134C219.601 293.336 219.32 293.735 218.976 294.021C218.308 294.575 215.601 298.515 215.601 298.934C215.601 299.072 214.983 300.151 214.227 301.333C212.3 304.345 208.504 312.384 207.821 314.897C207.507 316.054 206.866 317.98 206.397 319.179C204.144 324.936 206.35 337.934 209.647 338.321C210.804 338.456 213.218 335.251 215.914 330C216.31 329.23 217.209 327.7 217.912 326.6C218.615 325.5 219.958 323.383 220.896 321.895C222.83 318.825 231.772 305.898 233.237 304.054C233.767 303.385 234.831 301.996 235.601 300.967C242.202 292.145 256.252 276.897 260.201 274.272C261.081 273.687 262.206 272.915 262.701 272.555C263.245 272.161 263.601 272.08 263.601 272.351C263.601 272.598 263.437 272.8 263.237 272.8C263.036 272.8 262.488 273.565 262.018 274.5C261.126 276.276 257.677 281.94 255.355 285.441C254.61 286.564 254.001 287.616 254.001 287.78C254.001 287.943 253.642 288.58 253.204 289.195C249.636 294.207 242.623 310.884 241.597 316.8C240.706 321.939 240.691 322.72 241.428 325.48C242.461 329.343 244.766 332.002 247.081 331.999C247.83 331.998 249.721 328.809 250.226 326.696C250.371 326.089 250.65 325.494 250.845 325.373C251.041 325.252 251.201 324.881 251.201 324.55C251.201 324.218 251.626 323.374 252.146 322.673C252.666 321.973 253.997 319.665 255.105 317.545C256.213 315.424 257.807 312.634 258.648 311.345C260.621 308.317 260.709 308.181 262.601 305.203C263.481 303.818 265.104 301.586 266.208 300.242C267.312 298.899 268.742 297.08 269.387 296.2C270.031 295.32 270.668 294.51 270.802 294.4C270.936 294.29 271.721 293.3 272.545 292.2C275.987 287.608 287.281 276.92 291.501 274.261C292.436 273.672 293.201 273.041 293.201 272.858C293.201 272.675 293.831 272.187 294.601 271.772C295.371 271.357 296.001 270.891 296.001 270.736C296.001 270.581 296.347 270.344 296.77 270.21C297.193 270.076 299.169 268.894 301.162 267.583C303.155 266.272 305.023 265.2 305.313 265.2C305.603 265.2 306.012 265.041 306.221 264.847C306.782 264.327 316.776 259.2 317.229 259.2C317.442 259.2 318.288 258.778 319.109 258.261C319.93 257.745 321.321 257.087 322.201 256.798C323.081 256.509 325.231 255.582 326.98 254.737C328.728 253.891 330.443 253.2 330.791 253.2C331.139 253.2 331.826 252.917 332.319 252.572C332.812 252.227 335.147 251.251 337.508 250.403C342.211 248.715 346.18 247.234 352.001 244.998C354.091 244.195 356.569 243.377 357.507 243.18C358.445 242.983 359.567 242.632 360 242.4C361.253 241.73 367.464 239.676 371.525 238.59C373.573 238.042 376.273 237.222 377.525 236.769C378.777 236.315 380.521 235.755 381.401 235.524C382.281 235.293 384.261 234.69 385.801 234.183C387.341 233.677 389.258 233.153 390.061 233.021C392.064 232.689 393.909 231.711 394.495 230.67C396.233 227.583 396.724 192.772 395.196 181C394.968 179.24 394.638 176.244 394.464 174.341C393.886 168.024 393.75 167.98 382.401 170.405C376.646 171.635 351.484 171.198 348.162 169.81C347.36 169.474 346.337 169.2 345.89 169.2C343.676 169.2 333.339 165.263 330.701 163.415C330.218 163.077 329.512 162.8 329.132 162.8C328.752 162.8 328.297 162.548 328.121 162.241C327.945 161.933 326.631 160.811 325.201 159.747C323.771 158.682 319.351 154.614 315.379 150.706C311.408 146.798 307.538 143.145 306.779 142.587C305.279 141.482 300.542 137.255 296.372 133.3C294.923 131.925 293.569 130.8 293.364 130.8C293.159 130.8 291.84 129.675 290.432 128.3C289.025 126.925 287.317 125.388 286.637 124.885C284.803 123.527 276.138 115.359 273.605 112.6C272.393 111.28 270.455 109.3 269.298 108.2C268.141 107.1 267.196 105.988 267.198 105.728C267.2 105.469 266.577 104.596 265.815 103.787C265.052 102.979 264.32 101.976 264.188 101.559C264.055 101.141 263.779 100.8 263.574 100.8C263.369 100.8 263.201 100.451 263.201 100.024C263.201 99.5968 263.026 99.1388 262.812 99.0068C262.271 98.6718 260.845 95.5128 259.771 92.2678C258.341 87.9468 257.603 87.3938 255.532 89.0888ZM258.114 90.6998C258.463 91.5248 259.032 93.0998 259.379 94.1998C259.726 95.2998 260.458 96.9828 261.006 97.9408C261.553 98.8978 262.001 99.8618 262.001 100.083C262.001 100.304 262.406 100.993 262.901 101.615C263.396 102.236 264.251 103.413 264.801 104.23C265.351 105.047 267.151 107.18 268.801 108.97C270.451 110.76 272.455 112.939 273.254 113.812C275.164 115.901 284.675 124.841 285.756 125.566C286.221 125.877 287.806 127.227 289.28 128.566C290.753 129.905 293.706 132.53 295.841 134.4C297.976 136.27 301.09 139.093 302.762 140.672C304.433 142.252 306.791 144.345 308.001 145.323C309.211 146.302 312.451 149.419 315.201 152.251C321.228 158.458 325.74 162.493 327.614 163.353C328.377 163.703 329.886 164.644 330.968 165.445C332.716 166.738 337.903 169.2 338.882 169.2C339.085 169.2 340.259 169.66 341.489 170.223C345.866 172.225 354.338 173.613 362.226 173.621C373.271 173.632 376.049 173.364 385.201 171.41C392.123 169.932 392.439 170.062 392.879 174.561C393.636 182.297 393.946 184.779 394.409 186.8C394.99 189.337 394.679 219.805 394.043 222.6C393.843 223.48 393.558 225.409 393.41 226.886C393.098 229.989 392.249 230.809 388.601 231.527C387.501 231.744 386.061 232.109 385.401 232.34C384.741 232.571 382.041 233.283 379.401 233.922C376.761 234.562 373.431 235.497 372.001 236.001C353.384 242.562 352.329 242.956 344.201 246.385C343.761 246.57 342.321 247.123 341.001 247.613C338.192 248.655 333.833 250.488 331.001 251.816C327.981 253.233 325.367 254.349 322.927 255.262C321.717 255.715 319.647 256.696 318.326 257.442C317.005 258.189 315.806 258.801 315.663 258.802C315.519 258.804 314.861 259.089 314.201 259.436C313.541 259.783 311.021 261.074 308.601 262.304C306.181 263.533 303.481 265.003 302.601 265.57C301.721 266.136 300.821 266.69 300.601 266.8C299.093 267.554 295.863 269.614 294.049 270.98C292.866 271.871 291.4 272.96 290.791 273.4C286.821 276.272 273.55 289.016 272.55 290.917C272.227 291.532 271.116 292.901 270.082 293.961C267.65 296.451 264.536 300.607 260.61 306.6C256.145 313.415 255.934 313.759 253.495 318.2C250.237 324.132 250.13 324.34 248.634 327.7C247.027 331.307 246.426 331.543 244.569 329.293C241.039 325.018 241.521 316.035 245.787 306.6C246.284 305.5 246.817 304.199 246.97 303.708C247.377 302.412 253.397 290.647 255.214 287.6C256.066 286.17 256.934 284.64 257.142 284.2C257.351 283.76 258.016 282.68 258.622 281.8C259.228 280.92 260.523 278.85 261.501 277.2C262.479 275.55 263.4 274.11 263.548 274C263.696 273.89 264.036 273.35 264.303 272.8C264.571 272.25 265.185 271.308 265.669 270.707C267.608 268.294 265.224 268.835 261.729 271.6C258.833 273.892 244.418 288.285 241.876 291.423C240.817 292.73 239.411 294.43 238.752 295.2C237.333 296.856 234.451 300.53 233.601 301.764C233.271 302.244 232.101 303.787 231.001 305.193C228.939 307.829 228.386 308.626 223.051 316.658C221.318 319.266 219.651 321.76 219.347 322.2C217.004 325.581 216.546 326.342 213.207 332.4C210.036 338.152 208.904 338.017 206.841 331.64C206.312 330.005 206.257 323.384 206.76 321.76C206.957 321.122 207.421 319.52 207.79 318.2C208.703 314.938 208.663 315.032 212.239 307.86C216.267 299.785 217.518 297.696 222.307 291.057C222.806 290.365 223.526 289.336 223.907 288.769C224.904 287.287 228.456 282.823 229.423 281.838C229.875 281.377 230.67 280.37 231.191 279.6C231.712 278.83 233.367 276.914 234.869 275.343C236.372 273.771 237.601 272.317 237.601 272.11C237.601 271.904 241.651 267.631 246.601 262.613C251.551 257.596 255.601 253.321 255.601 253.114C255.601 252.141 249.341 254.674 244.798 257.484C239.928 260.497 233.973 264.698 233.499 265.455C233.332 265.721 232.522 266.348 231.699 266.85C228.486 268.808 213.815 282.765 209.961 287.53C208.657 289.142 207.026 290.935 206.336 291.516C205.646 292.096 204.566 293.284 203.934 294.155C203.303 295.027 201.982 296.653 200.998 297.77C198.142 301.011 196.259 303.281 195.003 305C194.36 305.88 193.615 306.78 193.348 307C193.081 307.22 192.533 307.959 192.131 308.643C191.73 309.327 190.321 311.254 189.001 312.927C185.724 317.078 183.364 320.405 182.769 321.71C181.95 323.509 180.342 321.979 178.808 317.939C178.361 316.763 177.816 315.487 177.598 315.105C177.079 314.198 177.082 307.321 177.601 307C177.821 306.864 178.001 306.335 178.001 305.825C178.001 304.294 180.169 297.993 181.735 294.974C182.541 293.42 183.201 291.95 183.201 291.707C183.201 291.465 183.342 291.207 183.514 291.133C183.687 291.06 184.893 289.29 186.196 287.2C187.499 285.11 188.664 283.31 188.785 283.2C188.907 283.09 189.635 282.133 190.404 281.072C198.389 270.056 216.379 251.618 233.013 237.4C234.3 236.3 236.264 234.588 237.377 233.597C238.49 232.605 239.986 231.377 240.701 230.869C243.746 228.705 241.33 228.26 236.079 230.018C234.826 230.437 233.508 230.785 233.15 230.79C232.792 230.796 232.275 231.07 232.001 231.4C231.727 231.73 231.253 232 230.948 232C228.729 232 212.41 240.619 204.689 245.868C202.317 247.481 200.289 248.8 200.183 248.8C199.999 248.8 196.15 251.739 194.731 252.962C194.363 253.28 193.661 253.754 193.172 254.016C192.281 254.492 189.103 257.221 184.601 261.373C183.281 262.591 181.58 264.041 180.821 264.596C179.439 265.605 170.327 274.798 167.499 278.036C165.05 280.84 164.054 278.445 164.222 270.16C164.382 262.25 167.053 254.863 171.798 249.2C172.997 247.77 174.277 246.067 174.644 245.414C175.409 244.054 183.911 235.769 185.592 234.747C186.209 234.372 186.836 233.866 186.986 233.624C187.136 233.381 188.258 232.445 189.478 231.543C190.699 230.641 191.991 229.641 192.349 229.32C193.048 228.694 195.565 226.894 199.787 224C201.232 223.01 203.025 221.75 203.773 221.2C204.52 220.65 206.33 219.48 207.794 218.6C209.259 217.72 211.029 216.602 211.729 216.117C212.961 215.261 219.206 211.363 221.75 209.862C222.438 209.456 223.361 208.808 223.801 208.422C224.241 208.035 224.936 207.6 225.346 207.455C226.058 207.202 237.496 200.268 239.613 198.805C240.17 198.42 241.34 197.719 242.213 197.246C243.087 196.773 244.611 195.771 245.601 195.02C246.591 194.268 247.581 193.638 247.801 193.619C248.19 193.585 254.77 189.049 256.027 187.948C256.372 187.647 257.272 187.049 258.027 186.62C259.499 185.785 262.525 183.387 264.801 181.25C265.571 180.527 266.961 179.405 267.89 178.757C268.818 178.108 270.107 176.817 270.753 175.889C271.399 174.96 272.558 173.521 273.327 172.691C274.096 171.861 275.483 169.654 276.408 167.787L278.089 164.392L278.029 159.996C277.965 155.275 276.856 152.096 274.207 149.038C273.654 148.399 273.201 147.749 273.201 147.593C273.201 147.37 266.837 140.94 264.175 138.475C263.65 137.989 260.433 133.856 257.931 130.455C246.41 114.788 245.098 100.306 254.397 91.4358C257.175 88.7858 257.295 88.7628 258.114 90.6998ZM225.294 99.5998C225.294 100.37 225.376 100.685 225.477 100.3C225.577 99.9148 225.577 99.2848 225.477 98.8998C225.376 98.5148 225.294 98.8298 225.294 99.5998ZM7.71493 233C7.71793 234.1 7.79593 234.503 7.88793 233.895C7.97993 233.286 7.97793 232.386 7.88293 231.895C7.78793 231.403 7.71193 231.9 7.71493 233ZM33.7009 236.298C35.8459 236.37 39.3559 236.37 41.5009 236.298C43.6459 236.226 41.8909 236.167 37.6009 236.167C33.3109 236.167 31.5559 236.226 33.7009 236.298ZM386.001 249.982C385.011 250.397 382.221 251.31 379.801 252.011C362.484 257.023 361.633 257.423 360.412 261.106C359.921 262.588 359.271 264.192 358.969 264.672C358.667 265.151 357.702 267.431 356.824 269.739C355.214 273.974 349.209 286.142 347.647 288.336C347.182 288.989 346.801 289.62 346.801 289.739C346.801 290.283 341.622 298.134 337.566 303.738C336.905 304.652 335.967 305.972 335.482 306.671C333.912 308.936 330.534 312.928 324.292 319.897C321.718 322.771 316.139 328.092 314.187 329.535C313.315 330.179 311.708 331.628 310.616 332.754C309.524 333.879 308.427 334.8 308.178 334.8C307.929 334.8 307.382 335.186 306.963 335.659C305.664 337.123 295.121 344.8 294.41 344.8C294.239 344.8 293.887 345.055 293.628 345.367C293.2 345.883 289.209 348.386 286.201 350.026C285.541 350.386 283.741 351.393 282.201 352.264C280.661 353.135 279.041 354.051 278.601 354.3C277.309 355.029 269.26 358.8 268.994 358.8C268.861 358.8 267.818 359.234 266.676 359.764C263.987 361.013 260.205 362.462 256.201 363.776C254.441 364.353 252.191 365.112 251.201 365.462C247.071 366.921 241.275 368.358 233.601 369.825C232.831 369.972 232.021 370.23 231.801 370.399C231.581 370.567 230.321 370.808 229.001 370.933C223.756 371.432 220.488 371.899 219.958 372.227C218.587 373.074 193.777 373.936 192.373 373.185C191.888 372.925 189.886 372.733 187.798 372.746C185.756 372.758 183.482 372.571 182.743 372.33C181.494 371.923 179.489 371.62 174.001 371.01C172.791 370.876 170.901 370.513 169.801 370.204C168.701 369.895 166.721 369.437 165.401 369.186C161.84 368.509 153.12 366.39 152.201 365.979C151.09 365.481 147.429 364.218 144.801 363.424C138.546 361.536 121.592 353.756 116.239 350.317C114.94 349.483 113.708 348.8 113.502 348.8C113.296 348.8 112.649 348.433 112.064 347.984C111.479 347.536 109.201 345.982 107.001 344.531C104.801 343.08 102.281 341.314 101.401 340.607C100.521 339.9 99.3159 339.069 98.7219 338.761C97.6579 338.208 96.3349 337.124 91.4459 332.8C81.1319 323.678 78.9749 321.638 77.3429 319.463C76.3279 318.108 74.6649 316.187 73.6489 315.194C72.6329 314.201 70.7209 311.972 69.4009 310.242C68.0809 308.512 66.4999 306.445 65.8879 305.648C61.1479 299.481 58.3689 295.278 54.5299 288.47C53.2489 286.198 51.3679 282.86 50.3509 281.052C49.3329 279.243 48.3769 277.2 48.2249 276.51C48.0739 275.82 47.6919 275.041 47.3769 274.78C47.0609 274.518 46.5419 273.424 46.2229 272.348C45.9029 271.273 45.3649 269.899 45.0269 269.296C44.6889 268.693 44.1549 267.48 43.8409 266.6C42.5179 262.896 41.1269 259.391 40.8269 259.009C40.6499 258.784 40.3819 257.88 40.2309 257C39.8229 254.616 38.7909 252.082 38.1229 251.825C36.4939 251.2 30.8729 251.147 28.3889 251.732C26.9519 252.071 23.4419 252.555 20.5889 252.808C12.0989 253.56 11.2689 255.245 14.9909 264.164C15.2739 264.844 15.8319 266.39 16.2299 267.6C16.6269 268.81 17.1879 270.25 17.4739 270.8C17.7609 271.35 17.9969 272.037 17.9989 272.326C17.9999 272.615 18.3419 273.695 18.7589 274.726C20.8169 279.815 22.5479 283.899 23.0279 284.8C23.3219 285.35 24.7419 288.19 26.1849 291.111C29.4859 297.796 29.1259 297.141 34.3729 306C37.7729 311.741 45.8339 323.2 46.4729 323.2C46.6479 323.2 47.2359 323.905 47.7799 324.767C51.9059 331.303 73.6039 353.33 78.3009 355.751C79.0159 356.119 79.6009 356.559 79.6009 356.729C79.6009 358.386 99.2489 371.248 110.601 377.022C113.901 378.701 117.051 380.313 117.601 380.604C121.406 382.624 124.042 383.801 126.532 384.594C128.11 385.096 130.211 385.873 131.201 386.321C134.318 387.731 140.456 389.887 144.401 390.957C146.491 391.524 149.821 392.444 151.801 393.002C153.781 393.56 156.211 394.184 157.201 394.388C158.191 394.593 159.541 394.87 160.201 395.005C160.861 395.14 162.481 395.497 163.801 395.799C169.372 397.072 181.109 398.426 188.401 398.637C191.371 398.723 195.331 398.984 197.201 399.218C199.071 399.452 201.38 399.531 202.331 399.393C203.283 399.255 207.603 398.98 211.931 398.783C219.678 398.43 223.677 398.073 229.601 397.206C231.251 396.965 233.796 396.618 235.256 396.435C236.717 396.252 238.156 395.951 238.455 395.767C238.753 395.582 239.808 395.296 240.799 395.131C244.786 394.466 245.433 394.332 246.201 394.016C246.641 393.835 248.171 393.415 249.601 393.082C254.256 391.998 262.466 389.626 263.71 389.006C264.377 388.673 265.16 388.4 265.449 388.4C265.738 388.4 266.565 388.143 267.287 387.828C268.01 387.513 269.591 386.887 270.801 386.437C279.797 383.09 295.424 375.571 300.194 372.294C301.07 371.692 301.916 371.2 302.074 371.2C302.335 371.2 309.539 366.521 314.001 363.454C314.991 362.773 317.213 361.088 318.939 359.708C320.665 358.329 322.224 357.2 322.403 357.2C322.583 357.2 323.759 356.21 325.019 355C326.278 353.79 327.473 352.8 327.675 352.8C328.284 352.8 338.773 342.592 345.801 335.161C351.264 329.384 357.337 321.618 363.13 313C365.2 309.92 367.122 307.13 367.4 306.8C367.679 306.47 368.038 305.75 368.2 305.2C368.361 304.65 368.82 303.84 369.22 303.4C370.006 302.535 373.496 296.043 376.961 289C380.823 281.15 381.986 278.422 383.872 272.8C384.204 271.81 384.892 270.01 385.401 268.8C385.91 267.59 386.9 264.8 387.602 262.6C391.645 249.918 391.368 247.729 386.001 249.982ZM388.401 252.714C388.401 253.106 388.041 254.452 387.601 255.704C387.161 256.956 386.801 258.232 386.801 258.541C386.801 258.85 386.562 259.301 386.269 259.543C385.973 259.79 385.718 260.856 385.693 261.959C385.664 263.211 385.273 264.674 384.624 265.954C384.062 267.065 383.601 268.268 383.601 268.628C383.601 268.988 383.159 270.119 382.618 271.141C382.078 272.163 380.689 275.43 379.534 278.4C378.378 281.37 376.84 284.675 376.116 285.745C375.393 286.815 374.801 287.94 374.801 288.247C374.801 288.802 369.75 298.907 367.687 302.481C363.983 308.896 360.899 313.785 358.309 317.351C357.37 318.643 356.241 320.271 355.801 320.967C354.482 323.055 352.744 325.279 350.717 327.476C349.663 328.618 348.801 329.775 348.801 330.048C348.801 330.321 347.911 331.367 346.824 332.372C345.736 333.377 343.531 335.667 341.924 337.459C337.28 342.637 326.285 352.827 320.801 357.034C319.811 357.794 318.31 358.975 317.466 359.66C316.621 360.345 313.471 362.557 310.466 364.578C307.46 366.598 304.165 368.824 303.143 369.525C302.121 370.226 301.131 370.801 300.943 370.801C300.755 370.802 299.521 371.521 298.201 372.4C296.881 373.279 295.651 373.998 295.467 373.999C295.284 373.999 293.211 375.035 290.862 376.3C285.401 379.24 273.178 384.8 272.176 384.8C271.885 384.8 271.034 385.162 270.285 385.603C269.536 386.045 267.951 386.683 266.762 387.021C265.574 387.359 264.241 387.797 263.801 387.993C262.926 388.383 256.637 390.254 254.401 390.789C253.631 390.973 252.011 391.42 250.801 391.782C240.694 394.808 227.38 396.838 212.801 397.575C208.951 397.77 205.172 398.125 204.404 398.364C202.602 398.926 198.375 398.925 196.927 398.363C196.308 398.122 192.651 397.764 188.801 397.567C174.29 396.823 160.891 394.641 149.801 391.216C148.261 390.741 146.101 390.105 145.001 389.803C143.901 389.502 141.44 388.703 139.533 388.028C137.626 387.352 135.883 386.8 135.661 386.8C135.264 386.8 131.353 385.121 128.201 383.598C124.557 381.837 120.255 380 119.773 380C119.49 380 119.02 379.763 118.73 379.474C117.988 378.735 114.798 376.941 113.601 376.589C113.051 376.427 112.151 375.982 111.601 375.6C111.051 375.218 109.521 374.34 108.201 373.648C106.881 372.956 104.541 371.585 103.001 370.603C101.461 369.62 99.4679 368.458 98.5709 368.02C97.6749 367.583 96.1179 366.499 95.1099 365.612C94.1029 364.726 93.1419 364 92.9759 364C92.8099 364 91.7559 363.307 90.6349 362.461C89.5139 361.614 88.0569 360.643 87.3979 360.302C86.7379 359.961 85.8579 359.306 85.4419 358.846C85.0259 358.386 83.7659 357.427 82.6429 356.717C81.5199 356.006 79.7009 354.504 78.6009 353.379C77.5009 352.254 75.7939 350.719 74.8079 349.967C72.7029 348.362 73.0419 348.666 66.8159 342.8C62.6029 338.831 57.0559 332.996 53.0609 328.331C52.4329 327.599 50.8679 325.885 49.5829 324.523C48.2969 323.161 46.9389 321.451 46.5649 320.723C46.1909 319.995 45.0799 318.503 44.0969 317.406C43.1139 316.309 42.1579 315.013 41.9729 314.526C41.7869 314.038 40.6699 312.325 39.4899 310.72C38.3089 309.114 37.2229 307.53 37.0749 307.2C36.9269 306.87 36.5799 306.25 36.3039 305.822C34.9459 303.72 32.5189 299.732 32.2719 299.2C32.1189 298.87 31.6139 297.97 31.1499 297.2C29.2239 294.007 27.6079 290.85 26.8129 288.725C26.3489 287.483 25.6479 286.046 25.2559 285.533C24.5549 284.615 19.9599 273.952 19.4239 272C19.2729 271.45 18.6979 269.92 18.1469 268.6C17.5959 267.28 16.9969 265.84 16.8169 265.4C16.6369 264.96 16.1789 263.43 15.7989 262C15.4189 260.57 14.8599 258.724 14.5569 257.898C13.6059 255.305 14.3989 254.842 21.2439 253.992C32.4969 252.595 38.0009 253.405 38.0009 256.459C38.0009 257.075 38.3439 258.348 38.7629 259.289C39.1819 260.23 39.7959 261.72 40.1269 262.6C40.4589 263.48 41.6459 266.568 42.7659 269.463C43.8849 272.357 44.8009 274.836 44.8009 274.972C44.8009 275.108 45.4309 276.135 46.2009 277.255C46.9709 278.374 47.6029 279.585 47.6059 279.945C47.6079 280.305 48.0439 281.358 48.5739 282.285C49.1039 283.212 49.6649 284.382 49.8199 284.885C49.9749 285.388 50.7129 286.64 51.4599 287.666C52.2069 288.692 53.0199 290.132 53.2649 290.866C53.6509 292.02 55.2749 294.596 55.9979 295.2C56.1289 295.31 57.2649 297.04 58.5199 299.045C59.7759 301.05 61.4309 303.48 62.1979 304.445C62.9659 305.41 63.5949 306.354 63.5969 306.542C63.5989 306.731 64.0509 307.239 64.6009 307.671C65.1509 308.104 65.6009 308.689 65.6009 308.971C65.6009 309.253 66.0619 309.981 66.6259 310.589C67.1899 311.198 68.5689 312.799 69.6899 314.148C70.8109 315.496 71.9359 316.78 72.1889 317C72.4429 317.22 73.6219 318.57 74.8089 320C75.9969 321.43 77.5159 323.173 78.1849 323.874C81.4099 327.254 84.2309 329.984 84.5039 329.991C84.6709 329.996 86.4139 331.44 88.3769 333.2C90.3399 334.96 92.1019 336.4 92.2929 336.4C92.4839 336.4 93.3609 337.093 94.2419 337.939C95.1229 338.786 96.8239 340.133 98.0219 340.932C101.435 343.209 102.736 344.13 103.911 345.1C104.511 345.594 105.198 345.999 105.44 346C105.681 346 106.311 346.383 106.84 346.852C107.368 347.321 108.611 348.094 109.601 348.571C110.591 349.048 112.661 350.25 114.201 351.241C115.741 352.233 117.811 353.388 118.801 353.808C119.791 354.228 121.411 355.012 122.401 355.549C125.52 357.243 130.42 359.6 130.823 359.6C131.036 359.6 132.063 359.978 133.105 360.44C136.27 361.842 136.527 361.949 138.729 362.794C141.23 363.754 144.048 364.682 149.001 366.18C150.981 366.779 153.681 367.603 155.001 368.012C157.389 368.751 161.331 369.706 164.001 370.192C164.771 370.333 166.391 370.627 167.601 370.847C174.809 372.157 179.492 372.744 185.801 373.128C188.661 373.302 191.394 373.66 191.875 373.922C192.967 374.519 207.371 374.551 210.001 373.962C210.991 373.74 214.051 373.385 216.801 373.173C222.607 372.724 226.358 372.28 230.001 371.61C231.431 371.347 233.411 370.985 234.401 370.806C239.023 369.97 240.819 369.586 243.652 368.829C248.113 367.638 260.526 363.468 264.001 361.993C265.651 361.293 267.655 360.476 268.454 360.178C269.76 359.691 272.264 358.534 274.073 357.582C274.443 357.387 276.423 356.38 278.473 355.343C283.163 352.971 288.07 350.214 290.389 348.648C291.373 347.984 292.857 347.071 293.688 346.62C295.309 345.74 300.504 342.069 302.552 340.355C303.239 339.781 304.375 339.017 305.077 338.658C305.778 338.299 306.588 337.668 306.877 337.256C307.165 336.845 308.211 335.952 309.201 335.273C310.191 334.594 311.811 333.202 312.801 332.18C313.791 331.158 315.051 330.084 315.601 329.794C317.621 328.728 333.724 311.352 336.418 307.33C336.739 306.852 338.846 303.926 341.101 300.829C343.356 297.733 345.201 295.123 345.201 295.029C345.201 294.936 346.521 292.732 348.134 290.13C349.747 287.529 351.798 283.96 352.691 282.2C353.584 280.44 355.009 277.644 355.858 275.987C356.707 274.33 357.83 271.99 358.354 270.787C358.878 269.584 360.003 267.09 360.854 265.245C361.705 263.399 362.401 261.556 362.401 261.15C362.401 260.014 365.03 258.598 369.64 257.251C371.928 256.582 376.411 255.138 379.601 254.042C385.877 251.886 388.401 251.505 388.401 252.714Z" fill="#EAD998"/>
</g>
<defs>
<clipPath id="clip0_295_416">
<rect width="400" height="404" rx="200" fill="white"/>
</clipPath>
</defs>
</svg>
